<svg xmlns="http://www.w3.org/2000/svg" xmlns:xlink="http://www.w3.org/1999/xlink" contentStyleType="text/css" data-diagram-type="DESCRIPTION" height="1592px" preserveAspectRatio="none" style="width:1688px;height:1592px;background:#FFFFFF;" version="1.1" viewBox="0 0 1688 1592" width="1688px" zoomAndPan="magnify"><?plantuml 1.2026.6?><defs/><g><g class="title" data-source-line="4"><text fill="#000000" font-family="sans-serif" font-size="14" font-weight="700" lengthAdjust="spacing" textLength="421.5654" x="630.071" y="23.5352">Cowrie - Use Case Diagram (Launch Corridor: NGN to KES)</text></g><!--cluster Cowrie Platform--><g class="cluster" data-qualified-name="Cowrie Platform" data-source-line="19" id="ent0010"><rect fill="none" height="982" rx="2.5" ry="2.5" style="stroke:#181818;stroke-width:1;" width="1197.68" x="302.59" y="274.6883"/><text fill="#000000" font-family="sans-serif" font-size="14" font-weight="700" lengthAdjust="spacing" textLength="116.457" x="843.2015" y="290.2234">Cowrie Platform</text></g><!--entity UC_Reg--><g class="entity" data-qualified-name="Cowrie Platform.UC_Reg" data-source-line="22" id="ent0011"><ellipse cx="417.5871" cy="1136.6897" fill="#F1F1F1" rx="72.9571" ry="16.9914" style="stroke:#181818;stroke-width:0.5;"/><text fill="#000000" font-family="sans-serif" font-size="14" lengthAdjust="spacing" textLength="113.0459" x="361.0641" y="1141.4338">Register account</text></g><!--entity UC_KYC--><g class="entity" data-qualified-name="Cowrie Platform.UC_KYC" data-source-line="23" id="ent0012"><ellipse cx="749.4189" cy="1080.6921" fill="#F1F1F1" rx="82.4689" ry="18.8938" style="stroke:#181818;stroke-width:0.5;"/><text fill="#000000" font-family="sans-serif" font-size="14" lengthAdjust="spacing" textLength="135.8848" x="681.4766" y="1085.4362">Verify identity (KYC)</text></g><!--entity UC_Sanc--><g class="entity" data-qualified-name="Cowrie Platform.UC_Sanc" data-source-line="24" id="ent0013"><ellipse cx="1095.3237" cy="1082.691" fill="#F1F1F1" rx="113.0637" ry="25.0127" style="stroke:#181818;stroke-width:0.5;"/><text fill="#000000" font-family="sans-serif" font-size="14" lengthAdjust="spacing" textLength="167.3232" x="1011.6621" y="1081.3758">Screen against sanctions</text><text fill="#000000" font-family="sans-serif" font-size="14" lengthAdjust="spacing" textLength="116.5664" x="1037.0405" y="1097.8641">(OFAC / UN / EU)</text></g><!--entity UC_Quote--><g class="entity" data-qualified-name="Cowrie Platform.UC_Quote" data-source-line="27" id="ent0014"><ellipse cx="1095.3217" cy="1210.6926" fill="#F1F1F1" rx="102.3717" ry="22.8743" style="stroke:#181818;stroke-width:0.5;"/><text fill="#000000" font-family="sans-serif" font-size="14" lengthAdjust="spacing" textLength="180.8379" x="1004.9027" y="1215.4368">Request transparent quote</text></g><!--entity UC_Send--><g class="entity" data-qualified-name="Cowrie Platform.UC_Send" data-source-line="28" id="ent0015"><ellipse cx="749.4151" cy="1205.6853" fill="#F1F1F1" rx="111.8351" ry="24.767" style="stroke:#181818;stroke-width:0.5;"/><text fill="#000000" font-family="sans-serif" font-size="14" lengthAdjust="spacing" textLength="175.5195" x="661.6554" y="1205.7999">Initiate &amp; confirm transfer</text><text fill="#000000" font-family="sans-serif" font-size="14" lengthAdjust="spacing" textLength="83.4736" x="707.6783" y="1222.2882">(6-digit PIN)</text></g><!--entity UC_Recv--><g class="entity" data-qualified-name="Cowrie Platform.UC_Recv" data-source-line="29" id="ent0016"><ellipse cx="1406.8326" cy="963.6868" fill="#F1F1F1" rx="77.4426" ry="17.8885" style="stroke:#181818;stroke-width:0.5;"/><text fill="#000000" font-family="sans-serif" font-size="14" lengthAdjust="spacing" textLength="123.9766" x="1344.8443" y="968.4309">Receive to M-Pesa</text></g><!--entity UC_Refund--><g class="entity" data-qualified-name="Cowrie Platform.UC_Refund" data-source-line="30" id="ent0017"><ellipse cx="417.5947" cy="1214.6886" fill="#F1F1F1" rx="77.4347" ry="25.6003" style="stroke:#181818;stroke-width:0.5;"/><text fill="#000000" font-family="sans-serif" font-size="14" lengthAdjust="spacing" textLength="108.6094" x="363.29" y="1212.2202">Cancel &amp; refund</text><text fill="#000000" font-family="sans-serif" font-size="14" lengthAdjust="spacing" textLength="94.042" x="370.5737" y="1228.7084">stuck transfer</text></g><!--entity UC_Hist--><g class="entity" data-qualified-name="Cowrie Platform.UC_Hist" data-source-line="31" id="ent0018"><ellipse cx="417.5927" cy="984.6912" fill="#F1F1F1" rx="82.3227" ry="25.3329" style="stroke:#181818;stroke-width:0.5;"/><text fill="#000000" font-family="sans-serif" font-size="14" lengthAdjust="spacing" textLength="94.7393" x="370.223" y="979.766">View history /</text><text fill="#000000" font-family="sans-serif" font-size="14" lengthAdjust="spacing" textLength="117.127" x="359.0292" y="996.2543">export statement</text></g><!--entity UC_Ticket--><g class="entity" data-qualified-name="Cowrie Platform.UC_Ticket" data-source-line="32" id="ent0019"><ellipse cx="417.5897" cy="1064.6902" fill="#F1F1F1" rx="85.7597" ry="19.5519" style="stroke:#181818;stroke-width:0.5;"/><text fill="#000000" font-family="sans-serif" font-size="14" lengthAdjust="spacing" textLength="143.5273" x="345.826" y="1069.4344">Create support ticket</text></g><!--entity UC_Bridge--><g class="entity" data-qualified-name="Cowrie Platform.UC_Bridge" data-source-line="35" id="ent0020"><ellipse cx="1095.3186" cy="704.6841" fill="#F1F1F1" rx="85.3586" ry="25.5558" style="stroke:#181818;stroke-width:0.5;"/><text fill="#000000" font-family="sans-serif" font-size="14" lengthAdjust="spacing" textLength="103.1543" x="1043.7414" y="700.0874">Execute atomic</text><text fill="#000000" font-family="sans-serif" font-size="14" lengthAdjust="spacing" textLength="120.4082" x="1035.1145" y="716.5757">bridge settlement</text></g><!--entity UC_Mint--><g class="entity" data-qualified-name="Cowrie Platform.UC_Mint" data-source-line="36" id="ent0021"><ellipse cx="417.5907" cy="492.6916" fill="#F1F1F1" rx="82.9207" ry="24.7033" style="stroke:#181818;stroke-width:0.5;"/><text fill="#000000" font-family="sans-serif" font-size="14" lengthAdjust="spacing" textLength="79.0439" x="378.0687" y="486.816">Mint cUSDC</text><text fill="#000000" font-family="sans-serif" font-size="14" lengthAdjust="spacing" textLength="121.4336" x="356.8739" y="503.3043">(reserve-attested)</text></g><!--entity UC_Burn--><g class="entity" data-qualified-name="Cowrie Platform.UC_Burn" data-source-line="37" id="ent0022"><ellipse cx="417.592" cy="578.6924" fill="#F1F1F1" rx="63.752" ry="25.8441" style="stroke:#181818;stroke-width:0.5;"/><text fill="#000000" font-family="sans-serif" font-size="14" lengthAdjust="spacing" textLength="80.1719" x="377.506" y="574.5153">Burn cUSDC</text><text fill="#000000" font-family="sans-serif" font-size="14" lengthAdjust="spacing" textLength="87.6982" x="373.7429" y="591.0035">(redemption)</text></g><!--entity UC_Att--><g class="entity" data-qualified-name="Cowrie Platform.UC_Att" data-source-line="38" id="ent0023"><ellipse cx="749.4227" cy="873.6863" fill="#F1F1F1" rx="71.3127" ry="24.908" style="stroke:#181818;stroke-width:0.5;"/><text fill="#000000" font-family="sans-serif" font-size="14" lengthAdjust="spacing" textLength="102.8262" x="698.0096" y="872.249">Publish reserve</text><text fill="#000000" font-family="sans-serif" font-size="14" lengthAdjust="spacing" textLength="72.6797" x="713.0828" y="888.7373">attestation</text></g><!--entity UC_ApiAuth--><g class="entity" data-qualified-name="Cowrie Platform.UC_ApiAuth" data-source-line="41" id="ent0024"><ellipse cx="1095.3217" cy="330.6866" fill="#F1F1F1" rx="94.3417" ry="21.2683" style="stroke:#181818;stroke-width:0.5;"/><text fill="#000000" font-family="sans-serif" font-size="14" lengthAdjust="spacing" textLength="163.0234" x="1013.81" y="335.4308">Authenticate via API key</text></g><!--entity UC_Intent--><g class="entity" data-qualified-name="Cowrie Platform.UC_Intent" data-source-line="42" id="ent0025"><ellipse cx="749.4233" cy="330.6889" fill="#F1F1F1" rx="89.1033" ry="20.2207" style="stroke:#181818;stroke-width:0.5;"/><text fill="#000000" font-family="sans-serif" font-size="14" lengthAdjust="spacing" textLength="151.1904" x="673.8281" y="335.4331">Create payment intent</text></g><!--entity UC_Webhook--><g class="entity" data-qualified-name="Cowrie Platform.UC_Webhook" data-source-line="43" id="ent0026"><ellipse cx="417.5873" cy="410.6877" fill="#F1F1F1" rx="98.9973" ry="22.1995" style="stroke:#181818;stroke-width:0.5;"/><text fill="#000000" font-family="sans-serif" font-size="14" lengthAdjust="spacing" textLength="173.3936" x="330.8905" y="415.4319">Receive signed webhooks</text></g><!--entity UC_Stats--><g class="entity" data-qualified-name="Cowrie Platform.UC_Stats" data-source-line="44" id="ent0027"><ellipse cx="417.5867" cy="331.6856" fill="#F1F1F1" rx="97.7367" ry="21.9473" style="stroke:#181818;stroke-width:0.5;"/><text fill="#000000" font-family="sans-serif" font-size="14" lengthAdjust="spacing" textLength="170.5977" x="332.2878" y="336.4298">Analyze transaction stats</text></g><!--entity UC_Monitor--><g class="entity" data-qualified-name="Cowrie Platform.UC_Monitor" data-source-line="47" id="ent0028"><ellipse cx="417.5891" cy="658.6901" fill="#F1F1F1" rx="84.4591" ry="19.2918" style="stroke:#181818;stroke-width:0.5;"/><text fill="#000000" font-family="sans-serif" font-size="14" lengthAdjust="spacing" textLength="140.5195" x="347.3293" y="663.4342">Monitor transactions</text></g><!--entity UC_Review--><g class="entity" data-qualified-name="Cowrie Platform.UC_Review" data-source-line="48" id="ent0029"><ellipse cx="417.5928" cy="738.6911" fill="#F1F1F1" rx="78.2728" ry="25.4728" style="stroke:#181818;stroke-width:0.5;"/><text fill="#000000" font-family="sans-serif" font-size="14" lengthAdjust="spacing" textLength="92.7021" x="371.2417" y="733.9725">Review KYC &amp;</text><text fill="#000000" font-family="sans-serif" font-size="14" lengthAdjust="spacing" textLength="110.4551" x="362.3652" y="750.4608">resolve disputes</text></g><!--entity UC_Export--><g class="entity" data-qualified-name="Cowrie Platform.UC_Export" data-source-line="49" id="ent0030"><ellipse cx="417.5914" cy="903.6846" fill="#F1F1F1" rx="91.9314" ry="20.7863" style="stroke:#181818;stroke-width:0.5;"/><text fill="#000000" font-family="sans-serif" font-size="14" lengthAdjust="spacing" textLength="157.6025" x="338.7901" y="908.4287">Export regulator report</text></g><!--entity UC_Dash--><g class="entity" data-qualified-name="Cowrie Platform.UC_Dash" data-source-line="50" id="ent0031"><ellipse cx="417.593" cy="823.6931" fill="#F1F1F1" rx="85.633" ry="24.6748" style="stroke:#181818;stroke-width:0.5;"/><text fill="#000000" font-family="sans-serif" font-size="14" lengthAdjust="spacing" textLength="80.8008" x="377.1926" y="817.7737">View cUSDC</text><text fill="#000000" font-family="sans-serif" font-size="14" lengthAdjust="spacing" textLength="125.7197" x="354.7331" y="834.262">reserve dashboard</text></g><!--entity User--><g class="entity" data-qualified-name="User" data-source-line="7" id="ent0001"><ellipse cx="130.8006" cy="1313.1983" fill="#F1F1F1" rx="16" ry="16" style="stroke:#181818;stroke-width:0.5;"/><path d="M130.8006,1333.1983 C134.8006,1333.1983 137.8006,1333.1983 141.8006,1329.1983 C149.8006,1329.1983 157.8006,1337.1983 157.8006,1345.1983 L157.8006,1349.1983 C157.8006,1353.1983 153.8006,1357.1983 149.8006,1357.1983 L111.8006,1357.1983 C107.8006,1357.1983 103.8006,1353.1983 103.8006,1349.1983 L103.8006,1345.1983 C103.8006,1337.1983 111.8006,1329.1983 119.8006,1329.1983 C123.8006,1333.1983 126.8006,1333.1983 130.8006,1333.1983" fill="#F1F1F1" style="stroke:#181818;stroke-width:0.5;"/><text fill="#000000" font-family="sans-serif" font-size="14" lengthAdjust="spacing" textLength="66.1514" x="74.64" y="1371.2334">Individual</text><text fill="#000000" font-family="sans-serif" font-size="14" lengthAdjust="spacing" textLength="112.3213" x="74.64" y="1387.7217">(CowriePay user)</text></g><!--entity Inst--><g class="entity" data-qualified-name="Inst" data-source-line="8" id="ent0002"><ellipse cx="130.7994" cy="247.1983" fill="#F1F1F1" rx="16" ry="16" style="stroke:#181818;stroke-width:0.5;"/><path d="M130.7994,267.1983 C134.7994,267.1983 137.7994,267.1983 141.7994,263.1983 C149.7994,263.1983 157.7994,271.1983 157.7994,279.1983 L157.7994,283.1983 C157.7994,287.1983 153.7994,291.1983 149.7994,291.1983 L111.7994,291.1983 C107.7994,291.1983 103.7994,287.1983 103.7994,283.1983 L103.7994,279.1983 C103.7994,271.1983 111.7994,263.1983 119.7994,263.1983 C123.7994,267.1983 126.7994,267.1983 130.7994,267.1983" fill="#F1F1F1" style="stroke:#181818;stroke-width:0.5;"/><text fill="#000000" font-family="sans-serif" font-size="14" lengthAdjust="spacing" textLength="81.4092" x="83.17" y="305.2334">Institution /</text><text fill="#000000" font-family="sans-serif" font-size="14" lengthAdjust="spacing" textLength="95.2588" x="83.17" y="321.7217">API Consumer</text></g><!--entity Admin--><g class="entity" data-qualified-name="Admin" data-source-line="9" id="ent0003"><ellipse cx="130.7969" cy="649.1983" fill="#F1F1F1" rx="16" ry="16" style="stroke:#181818;stroke-width:0.5;"/><path d="M130.7969,669.1983 C134.7969,669.1983 137.7969,669.1983 141.7969,665.1983 C149.7969,665.1983 157.7969,673.1983 157.7969,681.1983 L157.7969,685.1983 C157.7969,689.1983 153.7969,693.1983 149.7969,693.1983 L111.7969,693.1983 C107.7969,693.1983 103.7969,689.1983 103.7969,685.1983 L103.7969,681.1983 C103.7969,673.1983 111.7969,665.1983 119.7969,665.1983 C123.7969,669.1983 126.7969,669.1983 130.7969,669.1983" fill="#F1F1F1" style="stroke:#181818;stroke-width:0.5;"/><text fill="#000000" font-family="sans-serif" font-size="14" lengthAdjust="spacing" textLength="95.3545" x="6" y="707.2334">Cowrie Admin</text><text fill="#000000" font-family="sans-serif" font-size="14" lengthAdjust="spacing" textLength="249.5938" x="6" y="723.7217">(Support/Reviewer/Officer/Engineer)</text></g><!--entity Reg--><g class="entity" data-qualified-name="Reg" data-source-line="10" id="ent0004"><ellipse cx="130.7943" cy="873.1983" fill="#F1F1F1" rx="16" ry="16" style="stroke:#181818;stroke-width:0.5;"/><path d="M130.7943,893.1983 C134.7943,893.1983 137.7943,893.1983 141.7943,889.1983 C149.7943,889.1983 157.7943,897.1983 157.7943,905.1983 L157.7943,909.1983 C157.7943,913.1983 153.7943,917.1983 149.7943,917.1983 L111.7943,917.1983 C107.7943,917.1983 103.7943,913.1983 103.7943,909.1983 L103.7943,905.1983 C103.7943,897.1983 111.7943,889.1983 119.7943,889.1983 C123.7943,893.1983 126.7943,893.1983 130.7943,893.1983" fill="#F1F1F1" style="stroke:#181818;stroke-width:0.5;"/><text fill="#000000" font-family="sans-serif" font-size="14" lengthAdjust="spacing" textLength="65.4131" x="67.89" y="931.2334">Regulator</text><text fill="#000000" font-family="sans-serif" font-size="14" lengthAdjust="spacing" textLength="125.8086" x="67.89" y="947.7217">(SEC / CMA / CBN)</text></g><!--entity Mono--><g class="entity" data-qualified-name="Mono" data-source-line="13" id="ent0005"><ellipse cx="1095.3242" cy="1289.1983" fill="#F1F1F1" rx="16" ry="16" style="stroke:#181818;stroke-width:0.5;"/><path d="M1095.3242,1309.1983 C1099.3242,1309.1983 1102.3242,1309.1983 1106.3242,1305.1983 C1114.3242,1305.1983 1122.3242,1313.1983 1122.3242,1321.1983 L1122.3242,1325.1983 C1122.3242,1329.1983 1118.3242,1333.1983 1114.3242,1333.1983 L1076.3242,1333.1983 C1072.3242,1333.1983 1068.3242,1329.1983 1068.3242,1325.1983 L1068.3242,1321.1983 C1068.3242,1313.1983 1076.3242,1305.1983 1084.3242,1305.1983 C1088.3242,1309.1983 1091.3242,1309.1983 1095.3242,1309.1983" fill="#F1F1F1" style="stroke:#181818;stroke-width:0.5;"/><text fill="#000000" font-family="sans-serif" font-size="14" lengthAdjust="spacing" textLength="37.9463" x="1042.79" y="1347.2334">Mono</text><text fill="#000000" font-family="sans-serif" font-size="14" lengthAdjust="spacing" textLength="105.0684" x="1042.79" y="1363.7217">(NGN on-ramp)</text></g><!--entity Daraja--><g class="entity" data-qualified-name="Daraja" data-source-line="14" id="ent0006"><ellipse cx="1610.4888" cy="933.1983" fill="#F1F1F1" rx="16" ry="16" style="stroke:#181818;stroke-width:0.5;"/><path d="M1610.4888,953.1983 C1614.4888,953.1983 1617.4888,953.1983 1621.4888,949.1983 C1629.4888,949.1983 1637.4888,957.1983 1637.4888,965.1983 L1637.4888,969.1983 C1637.4888,973.1983 1633.4888,977.1983 1629.4888,977.1983 L1591.4888,977.1983 C1587.4888,977.1983 1583.4888,973.1983 1583.4888,969.1983 L1583.4888,965.1983 C1583.4888,957.1983 1591.4888,949.1983 1599.4888,949.1983 C1603.4888,953.1983 1606.4888,953.1983 1610.4888,953.1983" fill="#F1F1F1" style="stroke:#181818;stroke-width:0.5;"/><text fill="#000000" font-family="sans-serif" font-size="14" lengthAdjust="spacing" textLength="114.8643" x="1547.27" y="991.2334">Safaricom Daraja</text><text fill="#000000" font-family="sans-serif" font-size="14" lengthAdjust="spacing" textLength="126.4375" x="1547.27" y="1007.7217">(M-Pesa off-ramp)</text></g><!--entity Smile--><g class="entity" data-qualified-name="Smile" data-source-line="15" id="ent0007"><ellipse cx="1095.3266" cy="181.1983" fill="#F1F1F1" rx="16" ry="16" style="stroke:#181818;stroke-width:0.5;"/><path d="M1095.3266,201.1983 C1099.3266,201.1983 1102.3266,201.1983 1106.3266,197.1983 C1114.3266,197.1983 1122.3266,205.1983 1122.3266,213.1983 L1122.3266,217.1983 C1122.3266,221.1983 1118.3266,225.1983 1114.3266,225.1983 L1076.3266,225.1983 C1072.3266,225.1983 1068.3266,221.1983 1068.3266,217.1983 L1068.3266,213.1983 C1068.3266,205.1983 1076.3266,197.1983 1084.3266,197.1983 C1088.3266,201.1983 1091.3266,201.1983 1095.3266,201.1983" fill="#F1F1F1" style="stroke:#181818;stroke-width:0.5;"/><text fill="#000000" font-family="sans-serif" font-size="14" lengthAdjust="spacing" textLength="55.4531" x="1067.6" y="239.2334">Smile ID</text><text fill="#000000" font-family="sans-serif" font-size="14" lengthAdjust="spacing" textLength="36.6543" x="1067.6" y="255.7217">(KYC)</text></g><!--entity Bank--><g class="entity" data-qualified-name="Bank" data-source-line="16" id="ent0008"><ellipse cx="749.4269" cy="181.1983" fill="#F1F1F1" rx="16" ry="16" style="stroke:#181818;stroke-width:0.5;"/><path d="M749.4269,201.1983 C753.4269,201.1983 756.4269,201.1983 760.4269,197.1983 C768.4269,197.1983 776.4269,205.1983 776.4269,213.1983 L776.4269,217.1983 C776.4269,221.1983 772.4269,225.1983 768.4269,225.1983 L730.4269,225.1983 C726.4269,225.1983 722.4269,221.1983 722.4269,217.1983 L722.4269,213.1983 C722.4269,205.1983 730.4269,197.1983 738.4269,197.1983 C742.4269,201.1983 745.4269,201.1983 749.4269,201.1983" fill="#F1F1F1" style="stroke:#181818;stroke-width:0.5;"/><text fill="#000000" font-family="sans-serif" font-size="14" lengthAdjust="spacing" textLength="103.1338" x="697.86" y="239.2334">cUSDC Banking</text><text fill="#000000" font-family="sans-serif" font-size="14" lengthAdjust="spacing" textLength="48.6514" x="697.86" y="255.7217">Partner</text></g><!--entity Base--><g class="entity" data-qualified-name="Base" data-source-line="17" id="ent0009"><ellipse cx="1406.8236" cy="181.1983" fill="#F1F1F1" rx="16" ry="16" style="stroke:#181818;stroke-width:0.5;"/><path d="M1406.8236,201.1983 C1410.8236,201.1983 1413.8236,201.1983 1417.8236,197.1983 C1425.8236,197.1983 1433.8236,205.1983 1433.8236,213.1983 L1433.8236,217.1983 C1433.8236,221.1983 1429.8236,225.1983 1425.8236,225.1983 L1387.8236,225.1983 C1383.8236,225.1983 1379.8236,221.1983 1379.8236,217.1983 L1379.8236,213.1983 C1379.8236,205.1983 1387.8236,197.1983 1395.8236,197.1983 C1399.8236,201.1983 1402.8236,201.1983 1406.8236,201.1983" fill="#F1F1F1" style="stroke:#181818;stroke-width:0.5;"/><text fill="#000000" font-family="sans-serif" font-size="14" lengthAdjust="spacing" textLength="91.8271" x="1360.91" y="239.2334">Base Network</text><text fill="#000000" font-family="sans-serif" font-size="14" lengthAdjust="spacing" textLength="81.1563" x="1360.91" y="255.7217">(settlement)</text></g><!--link User to UC_Reg--><g class="link" data-entity-1="ent0001" data-entity-2="ent0011" data-link-type="dependency" data-source-line="54" id="lnk32"><path d="M187.25,1328.7383 C221.78,1316.3883 263.81,1295.1583 286.59,1260.6883 C297.54,1244.1283 281.95,1186.9983 294.59,1171.6883 C307.79,1155.7183 322.8863,1147.9589 342.8563,1143.0189" fill="none" id="User-to-UC_Reg" style="stroke:#181818;stroke-width:1;"/><polygon fill="#181818" points="347.71,1141.8183,338.0128,1140.0965,342.8563,1143.0189,339.9339,1147.8624,347.71,1141.8183" style="stroke:#181818;stroke-width:1;stroke-linejoin:miter;stroke-miterlimit:10;"/></g><!--link User to UC_KYC--><g class="link" data-entity-1="ent0001" data-entity-2="ent0012" data-link-type="dependency" data-source-line="55" id="lnk33"><path d="M187.37,1352.9283 C287.46,1366.0583 497.8,1376.9983 607.59,1260.6883 C638.56,1227.8783 611.59,1200.5683 637.59,1163.6883 C657.53,1135.3983 685.7967,1115.1972 710.4767,1100.7272" fill="none" id="User-to-UC_KYC" style="stroke:#181818;stroke-width:1;"/><polygon fill="#181818" points="714.79,1098.1983,705.0029,1099.2997,710.4767,1100.7272,709.0492,1106.201,714.79,1098.1983" style="stroke:#181818;stroke-width:1;stroke-linejoin:miter;stroke-miterlimit:10;"/></g><!--link User to UC_Quote--><g class="link" data-entity-1="ent0001" data-entity-2="ent0014" data-link-type="dependency" data-source-line="56" id="lnk34"><path d="M187.42,1354.9483 C216.53,1360.2783 252.83,1366.0383 285.59,1368.6883 C387.92,1376.9483 414.84,1382.3483 516.59,1368.6883 C714.46,1342.1183 935.794,1268.2176 1036.444,1232.0876" fill="none" id="User-to-UC_Quote" style="stroke:#181818;stroke-width:1;"/><polygon fill="#181818" points="1041.15,1230.3983,1031.3278,1229.6742,1036.444,1232.0876,1034.0307,1237.2038,1041.15,1230.3983" style="stroke:#181818;stroke-width:1;stroke-linejoin:miter;stroke-miterlimit:10;"/></g><!--link User to UC_Send--><g class="link" data-entity-1="ent0001" data-entity-2="ent0015" data-link-type="dependency" data-source-line="57" id="lnk35"><path d="M187.33,1340.6483 C262.8,1335.6083 401.52,1323.1083 516.59,1294.6883 C558.5,1284.3383 567.26,1276.0983 607.59,1260.6883 C635.91,1249.8683 662.6852,1239.444 688.6652,1229.254" fill="none" id="User-to-UC_Send" style="stroke:#181818;stroke-width:1;"/><polygon fill="#181818" points="693.32,1227.4283,683.4809,1226.9908,688.6652,1229.254,686.402,1234.4384,693.32,1227.4283" style="stroke:#181818;stroke-width:1;stroke-linejoin:miter;stroke-miterlimit:10;"/></g><!--link User to UC_Recv--><g class="link" data-entity-1="ent0001" data-entity-2="ent0016" data-link-type="dependency" data-source-line="58" id="lnk36"><path d="M160.23,1391.0383 C205.31,1459.4183 300.12,1577.6883 416.59,1577.6883 C416.59,1577.6883 416.59,1577.6883 1096.32,1577.6883 C1370.29,1577.6883 1401.6149,1089.2252 1405.1949,987.0652" fill="none" id="User-to-UC_Recv" style="stroke:#181818;stroke-width:1;"/><polygon fill="#181818" points="1405.37,982.0683,1401.0573,990.9227,1405.1949,987.0652,1409.0524,991.2028,1405.37,982.0683" style="stroke:#181818;stroke-width:1;stroke-linejoin:miter;stroke-miterlimit:10;"/></g><!--link User to UC_Refund--><g class="link" data-entity-1="ent0001" data-entity-2="ent0017" data-link-type="dependency" data-source-line="59" id="lnk37"><path d="M187.39,1333.1983 C217.57,1326.3883 255.04,1316.0583 286.59,1301.6883 C323.54,1284.8583 357.702,1261.0605 383.032,1241.6405" fill="none" id="User-to-UC_Refund" style="stroke:#181818;stroke-width:1;"/><polygon fill="#181818" points="387,1238.5983,377.4238,1240.8998,383.032,1241.6405,382.2913,1247.2486,387,1238.5983" style="stroke:#181818;stroke-width:1;stroke-linejoin:miter;stroke-miterlimit:10;"/></g><!--link User to UC_Hist--><g class="link" data-entity-1="ent0001" data-entity-2="ent0018" data-link-type="dependency" data-source-line="60" id="lnk38"><path d="M144.1,1296.2583 C164.26,1227.6083 210.74,1100.7883 294.59,1027.6883 C309.83,1014.4083 324.6926,1006.7473 343.7126,1000.3273" fill="none" id="User-to-UC_Hist" style="stroke:#181818;stroke-width:1;"/><polygon fill="#181818" points="348.45,998.7283,338.6434,997.8167,343.7126,1000.3273,341.2019,1005.3965,348.45,998.7283" style="stroke:#181818;stroke-width:1;stroke-linejoin:miter;stroke-miterlimit:10;"/></g><!--link User to UC_Ticket--><g class="link" data-entity-1="ent0001" data-entity-2="ent0019" data-link-type="dependency" data-source-line="61" id="lnk39"><path d="M187.26,1315.0783 C222.25,1293.8283 264.81,1261.3383 286.59,1219.6883 C298.67,1196.5983 278.44,1123.1383 294.59,1102.6883 C306.01,1088.2383 318.0821,1080.7054 335.6321,1075.0354" fill="none" id="User-to-UC_Ticket" style="stroke:#181818;stroke-width:1;"/><polygon fill="#181818" points="340.39,1073.4983,330.5961,1072.4589,335.6321,1075.0354,333.0556,1080.0714,340.39,1073.4983" style="stroke:#181818;stroke-width:1;stroke-linejoin:miter;stroke-miterlimit:10;"/></g><!--link Inst to UC_ApiAuth--><g class="link" data-entity-1="ent0002" data-entity-2="ent0024" data-link-type="dependency" data-source-line="64" id="lnk40"><path d="M178.71,251.6183 C297.78,189.1283 619.36,43.4883 861.26,147.6883 C933.16,178.6583 919.23,229.2583 982.26,275.6883 C1001.98,290.2083 1021.558,300.5817 1042.378,309.9217" fill="none" id="Inst-to-UC_ApiAuth" style="stroke:#181818;stroke-width:1;"/><polygon fill="#181818" points="1046.94,311.9683,1040.3657,304.6349,1042.378,309.9217,1037.0912,311.9341,1046.94,311.9683" style="stroke:#181818;stroke-width:1;stroke-linejoin:miter;stroke-miterlimit:10;"/></g><!--link Inst to UC_Intent--><g class="link" data-entity-1="ent0002" data-entity-2="ent0025" data-link-type="dependency" data-source-line="65" id="lnk41"><path d="M178.89,278.1983 C209.57,278.6383 250.46,279.3983 286.59,280.6883 C388.89,284.3483 414.82,281.7283 516.59,292.6883 C572.04,298.6583 629.4915,308.1992 675.5515,316.6192" fill="none" id="Inst-to-UC_Intent" style="stroke:#181818;stroke-width:1;"/><polygon fill="#181818" points="680.47,317.5183,672.336,311.9651,675.5515,316.6192,670.8974,319.8347,680.47,317.5183" style="stroke:#181818;stroke-width:1;stroke-linejoin:miter;stroke-miterlimit:10;"/></g><!--link Inst to UC_Webhook--><g class="link" data-entity-1="ent0002" data-entity-2="ent0026" data-link-type="dependency" data-source-line="66" id="lnk42"><path d="M178.91,307.9883 C210.72,327.5983 254.14,352.7183 294.59,370.6883 C313.74,379.1883 330.5182,385.3234 350.0982,391.5934" fill="none" id="Inst-to-UC_Webhook" style="stroke:#181818;stroke-width:1;"/><polygon fill="#181818" points="354.86,393.1183,347.5086,386.5641,350.0982,391.5934,345.0689,394.183,354.86,393.1183" style="stroke:#181818;stroke-width:1;stroke-linejoin:miter;stroke-miterlimit:10;"/></g><!--link Inst to UC_Stats--><g class="link" data-entity-1="ent0002" data-entity-2="ent0027" data-link-type="dependency" data-source-line="67" id="lnk43"><path d="M178.82,286.6083 C223.06,294.9883 285.1076,306.7564 336.7176,316.5464" fill="none" id="Inst-to-UC_Stats" style="stroke:#181818;stroke-width:1;"/><polygon fill="#181818" points="341.63,317.4783,333.5332,311.871,336.7176,316.5464,332.0422,319.7309,341.63,317.4783" style="stroke:#181818;stroke-width:1;stroke-linejoin:miter;stroke-miterlimit:10;"/></g><!--link Admin to UC_Monitor--><g class="link" data-entity-1="ent0003" data-entity-2="ent0028" data-link-type="dependency" data-source-line="70" id="lnk44"><path d="M255.88,670.5383 C283.31,668.5183 306.6835,666.7957 331.7935,664.9457" fill="none" id="Admin-to-UC_Monitor" style="stroke:#181818;stroke-width:1;"/><polygon fill="#181818" points="336.78,664.5783,327.5104,661.2504,331.7935,664.9457,328.0982,669.2288,336.78,664.5783" style="stroke:#181818;stroke-width:1;stroke-linejoin:miter;stroke-miterlimit:10;"/></g><!--link Admin to UC_Review--><g class="link" data-entity-1="ent0003" data-entity-2="ent0029" data-link-type="dependency" data-source-line="71" id="lnk45"><path d="M255.88,705.3983 C288.56,712.1683 317.6539,718.1944 345.9039,724.0444" fill="none" id="Admin-to-UC_Review" style="stroke:#181818;stroke-width:1;"/><polygon fill="#181818" points="350.8,725.0583,342.7981,719.3164,345.9039,724.0444,341.1759,727.1502,350.8,725.0583" style="stroke:#181818;stroke-width:1;stroke-linejoin:miter;stroke-miterlimit:10;"/></g><!--link Admin to UC_Export--><g class="link" data-entity-1="ent0003" data-entity-2="ent0030" data-link-type="dependency" data-source-line="72" id="lnk46"><path d="M162.07,727.1683 C191.23,769.2683 239.02,829.5283 294.59,865.6883 C310.77,876.2183 325.261,882.5082 343.661,888.1682" fill="none" id="Admin-to-UC_Export" style="stroke:#181818;stroke-width:1;"/><polygon fill="#181818" points="348.44,889.6383,341.0138,883.169,343.661,888.1682,338.6617,890.8154,348.44,889.6383" style="stroke:#181818;stroke-width:1;stroke-linejoin:miter;stroke-miterlimit:10;"/></g><!--link Admin to UC_Dash--><g class="link" data-entity-1="ent0003" data-entity-2="ent0031" data-link-type="dependency" data-source-line="73" id="lnk47"><path d="M243.01,727.1083 C258.98,737.2183 274.17,749.0483 286.59,762.6883 C292.76,769.4683 287.9,775.4283 294.59,781.6883 C308.66,794.8483 322.3184,802.2921 340.5284,808.5121" fill="none" id="Admin-to-UC_Dash" style="stroke:#181818;stroke-width:1;"/><polygon fill="#181818" points="345.26,810.1283,338.0361,803.4339,340.5284,808.5121,335.4502,811.0044,345.26,810.1283" style="stroke:#181818;stroke-width:1;stroke-linejoin:miter;stroke-miterlimit:10;"/></g><!--link Admin to UC_Mint--><g class="link" data-entity-1="ent0003" data-entity-2="ent0021" data-link-type="dependency" data-source-line="74" id="lnk48"><path d="M175.74,632.2583 C206.54,601.2883 250.03,561.8883 294.59,535.6883 C313.18,524.7583 330.2392,517.5672 350.2292,510.8672" fill="none" id="Admin-to-UC_Mint" style="stroke:#181818;stroke-width:1;"/><polygon fill="#181818" points="354.97,509.2783,345.1654,508.3458,350.2292,510.8672,347.7077,515.9311,354.97,509.2783" style="stroke:#181818;stroke-width:1;stroke-linejoin:miter;stroke-miterlimit:10;"/></g><!--link Admin to UC_Burn--><g class="link" data-entity-1="ent0003" data-entity-2="ent0022" data-link-type="dependency" data-source-line="75" id="lnk49"><path d="M255.78,635.4683 C268.88,630.8083 282.01,626.1483 294.59,621.6883 C318.94,613.0583 341.3139,605.1692 363.7739,597.2592" fill="none" id="Admin-to-UC_Burn" style="stroke:#181818;stroke-width:1;"/><polygon fill="#181818" points="368.49,595.5983,358.6723,594.8151,363.7739,597.2592,361.3298,602.3608,368.49,595.5983" style="stroke:#181818;stroke-width:1;stroke-linejoin:miter;stroke-miterlimit:10;"/></g><!--link Reg to UC_Export--><g class="link" data-entity-1="ent0004" data-entity-2="ent0030" data-link-type="dependency" data-source-line="78" id="lnk50"><path d="M193.94,903.6883 C232.41,903.6883 277.47,903.6883 320.37,903.6883" fill="none" id="Reg-to-UC_Export" style="stroke:#181818;stroke-width:1;"/><polygon fill="#181818" points="325.37,903.6883,316.37,899.6883,320.37,903.6883,316.37,907.6883,325.37,903.6883" style="stroke:#181818;stroke-width:1;stroke-linejoin:miter;stroke-miterlimit:10;"/></g><!--link Reg to UC_Dash--><g class="link" data-entity-1="ent0004" data-entity-2="ent0031" data-link-type="dependency" data-source-line="79" id="lnk51"><path d="M193.94,886.2283 C241.74,872.8083 302.6163,855.7003 350.2563,842.3203" fill="none" id="Reg-to-UC_Dash" style="stroke:#181818;stroke-width:1;"/><polygon fill="#181818" points="355.07,840.9683,345.3237,839.5508,350.2563,842.3203,347.4868,847.2528,355.07,840.9683" style="stroke:#181818;stroke-width:1;stroke-linejoin:miter;stroke-miterlimit:10;"/></g><!--link Reg to UC_Att--><g class="link" data-entity-1="ent0004" data-entity-2="ent0023" data-link-type="dependency" data-source-line="80" id="lnk52"><path d="M137.54,951.1483 C150.01,1030.7483 187.66,1189.1683 294.59,1257.6883 C377.67,1310.9183 419.94,1277.5283 516.59,1257.6883 C559.69,1248.8383 580.32,1253.2283 607.59,1218.6883 C656.22,1157.0983 609,1117.7683 637.59,1044.6883 C659.95,987.5283 699.7792,933.1967 725.1492,901.6067" fill="none" id="Reg-to-UC_Att" style="stroke:#181818;stroke-width:1;"/><polygon fill="#181818" points="728.28,897.7083,719.5257,902.2208,725.1492,901.6067,725.7632,907.2301,728.28,897.7083" style="stroke:#181818;stroke-width:1;stroke-linejoin:miter;stroke-miterlimit:10;"/></g><!--link UC_Reg to UC_KYC--><g class="link" data-entity-1="ent0011" data-entity-2="ent0012" data-link-type="dependency" data-source-line="83" id="lnk53"><path d="M477.56,1126.6783 C535,1116.9283 617.2505,1102.9551 677.1005,1092.7951" fill="none" id="UC_Reg-to-UC_KYC" style="stroke:#181818;stroke-width:1;stroke-dasharray:7,7;"/><polygon fill="#181818" points="682.03,1091.9583,672.4875,1089.521,677.1005,1092.7951,673.8264,1097.4081,682.03,1091.9583" style="stroke:#181818;stroke-width:1;stroke-linejoin:miter;stroke-miterlimit:10;"/><text fill="#000000" font-family="sans-serif" font-size="13" lengthAdjust="spacing" textLength="59.3569" x="547.59" y="1101.9066">&#171;include&#187;</text></g><!--link UC_KYC to UC_Sanc--><g class="link" data-entity-1="ent0012" data-entity-2="ent0013" data-link-type="dependency" data-source-line="84" id="lnk54"><path d="M829.72,1076.0583 C849.79,1075.0683 871.31,1074.1883 891.26,1073.6883 C918.36,1073.0183 925.16,1072.8283 952.26,1073.6883 C963.5,1074.0483 970.2366,1074.302 981.9266,1074.902" fill="none" id="UC_KYC-to-UC_Sanc" style="stroke:#181818;stroke-width:1;stroke-dasharray:7,7;"/><polygon fill="#181818" points="986.92,1075.1583,978.1369,1070.7022,981.9266,1074.902,977.7268,1078.6917,986.92,1075.1583" style="stroke:#181818;stroke-width:1;stroke-linejoin:miter;stroke-miterlimit:10;"/><text fill="#000000" font-family="sans-serif" font-size="13" lengthAdjust="spacing" textLength="59.3569" x="892.26" y="1069.6766">&#171;include&#187;</text></g><!--link UC_Send to UC_Quote--><g class="link" data-entity-1="ent0015" data-entity-2="ent0014" data-link-type="dependency" data-source-line="85" id="lnk55"><path d="M861.13,1208.1683 C871.31,1208.3583 881.48,1208.5383 891.26,1208.6883 C924.22,1209.1983 955.1902,1209.5604 987.5802,1209.8704" fill="none" id="UC_Send-to-UC_Quote" style="stroke:#181818;stroke-width:1;stroke-dasharray:7,7;"/><polygon fill="#181818" points="992.58,1209.9183,983.6187,1205.8323,987.5802,1209.8704,983.5421,1213.832,992.58,1209.9183" style="stroke:#181818;stroke-width:1;stroke-linejoin:miter;stroke-miterlimit:10;"/><text fill="#000000" font-family="sans-serif" font-size="13" lengthAdjust="spacing" textLength="59.3569" x="892.26" y="1205.2566">&#171;include&#187;</text></g><!--link UC_Send to UC_Sanc--><g class="link" data-entity-1="ent0015" data-entity-2="ent0013" data-link-type="dependency" data-source-line="86" id="lnk56"><path d="M829.63,1188.2083 C867.3,1178.9583 912.66,1166.4483 952.26,1151.6883 C986.56,1138.9083 1019.2899,1123.0065 1046.9999,1108.5065" fill="none" id="UC_Send-to-UC_Sanc" style="stroke:#181818;stroke-width:1;stroke-dasharray:7,7;"/><polygon fill="#181818" points="1051.43,1106.1883,1041.6012,1106.8169,1046.9999,1108.5065,1045.3103,1113.9051,1051.43,1106.1883" style="stroke:#181818;stroke-width:1;stroke-linejoin:miter;stroke-miterlimit:10;"/><text fill="#000000" font-family="sans-serif" font-size="13" lengthAdjust="spacing" textLength="59.3569" x="892.26" y="1148.2566">&#171;include&#187;</text></g><!--link UC_Send to UC_Bridge--><g class="link" data-entity-1="ent0015" data-entity-2="ent0020" data-link-type="dependency" data-source-line="87" id="lnk57"><path d="M793.53,1182.6383 C821.39,1167.7683 858.44,1148.0383 891.26,1130.6883 C918.33,1116.3783 932.14,1121.7683 952.26,1098.6883 C977.85,1069.3283 1058.6039,817.916 1084.7539,735.136" fill="none" id="UC_Send-to-UC_Bridge" style="stroke:#181818;stroke-width:1;stroke-dasharray:7,7;"/><polygon fill="#181818" points="1086.26,730.3683,1079.7348,737.7454,1084.7539,735.136,1087.3632,740.1552,1086.26,730.3683" style="stroke:#181818;stroke-width:1;stroke-linejoin:miter;stroke-miterlimit:10;"/><text fill="#000000" font-family="sans-serif" font-size="13" lengthAdjust="spacing" textLength="59.3569" x="892.26" y="1095.2566">&#171;include&#187;</text></g><!--link UC_Bridge to UC_Recv--><g class="link" data-entity-1="ent0020" data-entity-2="ent0016" data-link-type="dependency" data-source-line="88" id="lnk58"><path d="M1125.44,729.0583 C1187.44,780.9383 1327.3857,898.0392 1381.1757,943.0592" fill="none" id="UC_Bridge-to-UC_Recv" style="stroke:#181818;stroke-width:1;stroke-dasharray:7,7;"/><polygon fill="#181818" points="1385.01,946.2683,1380.6756,937.4245,1381.1757,943.0592,1375.541,943.5593,1385.01,946.2683" style="stroke:#181818;stroke-width:1;stroke-linejoin:miter;stroke-miterlimit:10;"/><text fill="#000000" font-family="sans-serif" font-size="13" lengthAdjust="spacing" textLength="59.3569" x="1239.39" y="822.9866">&#171;include&#187;</text></g><!--link UC_Refund to UC_Send--><g class="link" data-entity-1="ent0017" data-entity-2="ent0015" data-link-type="dependency" data-source-line="89" id="lnk59"><path d="M495.09,1212.5983 C537.53,1211.4383 586.0619,1210.1147 632.9619,1208.8347" fill="none" id="UC_Refund-to-UC_Send" style="stroke:#181818;stroke-width:1;stroke-dasharray:7,7;"/><polygon fill="#181818" points="637.96,1208.6983,628.8542,1204.9453,632.9619,1208.8347,629.0725,1212.9423,637.96,1208.6983" style="stroke:#181818;stroke-width:1;stroke-linejoin:miter;stroke-miterlimit:10;"/><text fill="#000000" font-family="sans-serif" font-size="13" lengthAdjust="spacing" textLength="57.1924" x="548.59" y="1206.2166">&#171;extend&#187;</text></g><!--link UC_Intent to UC_ApiAuth--><g class="link" data-entity-1="ent0025" data-entity-2="ent0024" data-link-type="dependency" data-source-line="90" id="lnk60"><path d="M838.99,330.6883 C888.54,330.6883 945.29,330.6883 995.64,330.6883" fill="none" id="UC_Intent-to-UC_ApiAuth" style="stroke:#181818;stroke-width:1;stroke-dasharray:7,7;"/><polygon fill="#181818" points="1000.64,330.6883,991.64,326.6883,995.64,330.6883,991.64,334.6883,1000.64,330.6883" style="stroke:#181818;stroke-width:1;stroke-linejoin:miter;stroke-miterlimit:10;"/><text fill="#000000" font-family="sans-serif" font-size="13" lengthAdjust="spacing" textLength="59.3569" x="892.26" y="327.2566">&#171;include&#187;</text></g><!--link UC_Intent to UC_Bridge--><g class="link" data-entity-1="ent0025" data-entity-2="ent0020" data-link-type="dependency" data-source-line="91" id="lnk61"><path d="M768.91,350.7983 C827.23,414.2183 1003.8359,606.2776 1067.9559,676.0176" fill="none" id="UC_Intent-to-UC_Bridge" style="stroke:#181818;stroke-width:1;stroke-dasharray:7,7;"/><polygon fill="#181818" points="1071.34,679.6983,1068.1932,670.3657,1067.9559,676.0176,1062.304,675.7803,1071.34,679.6983" style="stroke:#181818;stroke-width:1;stroke-linejoin:miter;stroke-miterlimit:10;"/><text fill="#000000" font-family="sans-serif" font-size="13" lengthAdjust="spacing" textLength="59.3569" x="892.26" y="480.7566">&#171;include&#187;</text></g><!--link UC_Mint to UC_Att--><g class="link" data-entity-1="ent0021" data-entity-2="ent0023" data-link-type="dependency" data-source-line="92" id="lnk62"><path d="M474.81,511.0183 C489.36,517.3983 504.35,525.5583 516.59,535.6883 C628.4,628.2583 707.1321,783.3897 735.3521,844.4397" fill="none" id="UC_Mint-to-UC_Att" style="stroke:#181818;stroke-width:1;stroke-dasharray:7,7;"/><polygon fill="#181818" points="737.45,848.9783,737.3046,839.1305,735.3521,844.4397,730.0429,842.4872,737.45,848.9783" style="stroke:#181818;stroke-width:1;stroke-linejoin:miter;stroke-miterlimit:10;"/><text fill="#000000" font-family="sans-serif" font-size="13" lengthAdjust="spacing" textLength="59.3569" x="547.59" y="561.9966">&#171;include&#187;</text></g><!--link UC_KYC to Smile--><g class="link" data-entity-1="ent0012" data-entity-2="ent0007" data-link-type="dependency" data-source-line="95" id="lnk63"><path d="M767.9,1062.2383 C793.81,1033.5483 841.48,975.2983 861.26,915.6883 C882.63,851.2783 853.32,361.9583 891.26,305.6883 C931.98,245.2883 1017.0496,223.7696 1062.2996,216.1396" fill="none" id="UC_KYC-to-Smile" style="stroke:#181818;stroke-width:1;"/><polygon fill="#181818" points="1067.23,215.3083,1057.6902,212.8604,1062.2996,216.1396,1059.0204,220.749,1067.23,215.3083" style="stroke:#181818;stroke-width:1;stroke-linejoin:miter;stroke-miterlimit:10;"/></g><!--link UC_Send to Mono--><g class="link" data-entity-1="ent0015" data-entity-2="ent0005" data-link-type="dependency" data-source-line="96" id="lnk64"><path d="M813.1,1226.4683 C878.87,1248.2683 976.324,1280.575 1037.714,1300.925" fill="none" id="UC_Send-to-Mono" style="stroke:#181818;stroke-width:1;"/><polygon fill="#181818" points="1042.46,1302.4983,1035.1757,1295.8696,1037.714,1300.925,1032.6585,1303.4633,1042.46,1302.4983" style="stroke:#181818;stroke-width:1;stroke-linejoin:miter;stroke-miterlimit:10;"/></g><!--link UC_Recv to Daraja--><g class="link" data-entity-1="ent0016" data-entity-2="ent0006" data-link-type="dependency" data-source-line="97" id="lnk65"><path d="M1484.64,963.6883 C1505.24,963.6883 1522.25,963.6883 1541.96,963.6883" fill="none" id="UC_Recv-to-Daraja" style="stroke:#181818;stroke-width:1;"/><polygon fill="#181818" points="1546.96,963.6883,1537.96,959.6883,1541.96,963.6883,1537.96,967.6883,1546.96,963.6883" style="stroke:#181818;stroke-width:1;stroke-linejoin:miter;stroke-miterlimit:10;"/></g><!--link UC_Bridge to Base--><g class="link" data-entity-1="ent0020" data-entity-2="ent0009" data-link-type="dependency" data-source-line="98" id="lnk66"><path d="M1108.08,679.3683 C1139.42,613.0383 1229.41,429.9183 1329.39,293.6883 C1338.71,280.9783 1346.394,271.7681 1357.184,260.1081" fill="none" id="UC_Bridge-to-Base" style="stroke:#181818;stroke-width:1;"/><polygon fill="#181818" points="1360.58,256.4383,1351.5314,260.3271,1357.184,260.1081,1357.4031,265.7607,1360.58,256.4383" style="stroke:#181818;stroke-width:1;stroke-linejoin:miter;stroke-miterlimit:10;"/></g><!--link UC_Mint to Bank--><g class="link" data-entity-1="ent0021" data-entity-2="ent0008" data-link-type="dependency" data-source-line="99" id="lnk67"><path d="M476.94,474.9983 C490.99,468.8583 505.21,460.8783 516.59,450.6883 C536.75,432.6283 530.93,419.7683 546.59,397.6883 C582.12,347.5883 592.42,335.3083 637.59,293.6883 C656.07,276.6583 673.9758,262.7208 693.4558,248.7608" fill="none" id="UC_Mint-to-Bank" style="stroke:#181818;stroke-width:1;"/><polygon fill="#181818" points="697.52,245.8483,687.8745,247.8395,693.4558,248.7608,692.5345,254.3421,697.52,245.8483" style="stroke:#181818;stroke-width:1;stroke-linejoin:miter;stroke-miterlimit:10;"/></g><!--link UC_Burn to Bank--><g class="link" data-entity-1="ent0022" data-entity-2="ent0008" data-link-type="dependency" data-source-line="100" id="lnk68"><path d="M468.23,562.5983 C484.74,555.6983 502.5,546.4683 516.59,534.6883 C571.54,488.7483 577.37,466.6283 607.59,401.6883 C628.6,356.5183 609.36,334.7383 637.59,293.6883 C652.85,271.4983 671.9046,255.6983 693.1746,241.9083" fill="none" id="UC_Burn-to-Bank" style="stroke:#181818;stroke-width:1;"/><polygon fill="#181818" points="697.37,239.1883,687.6422,240.728,693.1746,241.9083,691.9943,247.4406,697.37,239.1883" style="stroke:#181818;stroke-width:1;stroke-linejoin:miter;stroke-miterlimit:10;"/></g><?plantuml-src XLPBR-Cs4BxhLn0vR9E3D-Xh3uj50CV9jiOsZXitBGeOA1XfPBEMI2r9EN6B_lVEy2KgThSvEEBmc_V78HkeBREAQR7PMbO93QKLIXPc9sJ7DMzPnyiTty3A7XfWjCtbfe4Cm4khjD_cps1K2uKL5bSpzQm5i0bxDBZW-7CZ-8PKpd_YlIotYD1QL4g_PuiV5XJ6fzlLHL5ynIRfZosrQBa-iFDjtt9vuTsP354u2JkRoqhiHTNpPYtFlUybFx3UWBuuOznG67e06moofrpPvLfEbtCCHfg-1Usmj1-n8OzfrGg9fbTzrobjBnzWB-0PzELzNOiI_z_AZP0GlJbuDF40cxxX-4dwjpDsoMPtK_gzNdWq0bxblO9IoSfb3YyMjEGDCmTZeVr23UwKLEY2ggda14lTUVCaZvWLhxaMfMhP3VRlJuxukyaI36UghZCTlvkqMe4jdTyW-jFlCuzmiWWe7rStCtRD9H9ZivPBhgqCnIHXX5qJ3nPWdvNUeIq35gdIWhGN0MgWA1BDKl6NMBrQwVQC_LqKZBbAiNlvfBYkq1zxmp0gTlxnuUiBsa88zhqaNrHxWMNJMBLIzT9wBip-e99di5z1Y_h0H8Mn28jLJsaY5hzpxAhK09Bn3HV84sQuTAV6O4Bt7wVKtiS5_jm-9WChX0o1hq1Mr1Cu40SILJ7yRqw4_xa7T68rbmPF78R7FlVAGZJzCoroZRaKLd0BM1IaK2rqwvLh8FgzcrHY8onRpXT3T1ZFs6S9OWzq8ZqrXfgL-nmumxIWGKSQwbvMQwn6N-wIkq6DTaVLngF3jjWNXGJ70mWlTAQOiHWtiI5g_eYGaKCDb9dnPv1PKUuWWNzngxpCaLnK2iTFBF6tHoM-VO6oHwjuG5jHhkKJ3gKDEadgqS6rsyXLxmGQTwQnj1fmmknXmgt5Za6LwakeNEkwrpBJgg3jY3y9J_ivVja_DS9iMN2mbju39wMeCxLPvd5auLYxPDcimnc25VZkg0BJtcw9zoKLTo-uqzp18Hdl145ETABZ1rTWp30hrDojJb7AY8s4YZt3qrQfdOaAl_drA2QCzl0NU39nTy0SFvBEYXP3pcxWOgDdgkqQGSHq8rtX5C6Slp_A6S-Ve96KsK-cmzuu0HhtRioyMKliX6emdKgO3gbZ1gOJQamknrGTRm3y8a5KyDj7HoEG8pISLTnitQoBQZSeAFv9LmORBZy465KAnurmHHHqy-7dLHnx-Pf6MxxsuoINkEamDe5JO2nmvpiNkOER2-BX728URk0J8TDsL8tiosM1ORaeSYYN1Ov4fvuZ9zpvZQ0KkpyIXiwEPA5v8vdhpDWSdVwHn9tl55Hw79mA33TVUSiapbUsTZCWcXMoRFeAS03G-m4l70sDDxqLNMA68mHx-pPoWRrd7pu4rQkh8WZ3FjrYnm1tcmM4Oy-N8Vzln8_POqoG1nIny1ZZgPXyaLN2-19uYATEX0Ho7LiQm_uh9dS1H5FMlWAaPhnwmk7Or3XjHUSQClI2Qaszz2-hc019t0ikPas2y3mRGYEXUpx5gBm0drw1SKdmBm00?></g></svg>