<svg xmlns="http://www.w3.org/2000/svg" xmlns:xlink="http://www.w3.org/1999/xlink" contentStyleType="text/css" data-diagram-type="STATE" height="1296px" preserveAspectRatio="none" style="width:688px;height:1296px;background:#FFFFFF;" version="1.1" viewBox="0 0 688 1296" width="688px" zoomAndPan="magnify"><?plantuml 1.2026.6?><defs/><g><g class="title" data-source-line="1"><text fill="#000000" font-family="sans-serif" font-size="14" font-weight="700" lengthAdjust="spacing" textLength="394.7344" x="143.5778" y="23.5352">Cowrie - State Machine Diagram: Transaction Lifecycle</text></g><g class="start_entity" data-qualified-name=".start." data-source-line="3" id="ent0001"><ellipse cx="139.89" cy="53.4883" fill="#222222" rx="10" ry="10" style="stroke:#222222;stroke-width:1;"/></g><g class="entity" data-qualified-name="Created" data-source-line="3" id="ent0002"><rect fill="#F1F1F1" height="50" rx="12.5" ry="12.5" style="stroke:#181818;stroke-width:0.5;" width="72.7939" x="103.49" y="140.4883"/><line style="stroke:#181818;stroke-width:0.5;" x1="103.49" x2="176.2839" y1="166.9766" y2="166.9766"/><text fill="#000000" font-family="sans-serif" font-size="14" lengthAdjust="spacing" textLength="52.7939" x="113.49" y="159.0234">Created</text></g><g class="entity" data-qualified-name="Quoted" data-source-line="4" id="ent0004"><rect fill="#F1F1F1" height="50" rx="12.5" ry="12.5" style="stroke:#181818;stroke-width:0.5;" width="70.0117" x="104.89" y="267.4883"/><line style="stroke:#181818;stroke-width:0.5;" x1="104.89" x2="174.9017" y1="293.9766" y2="293.9766"/><text fill="#000000" font-family="sans-serif" font-size="14" lengthAdjust="spacing" textLength="50.0117" x="114.89" y="286.0234">Quoted</text></g><g class="entity" data-qualified-name="Cancelled" data-source-line="5" id="ent0006"><rect fill="#F1F1F1" height="50" rx="12.5" ry="12.5" style="stroke:#181818;stroke-width:0.5;" width="85.7822" x="7" y="489.4883"/><line style="stroke:#181818;stroke-width:0.5;" x1="7" x2="92.7822" y1="515.9766" y2="515.9766"/><text fill="#000000" font-family="sans-serif" font-size="14" lengthAdjust="spacing" textLength="65.7822" x="17" y="508.0234">Cancelled</text></g><g class="entity" data-qualified-name="Authorized" data-source-line="6" id="ent0008"><rect fill="#F1F1F1" height="50" rx="12.5" ry="12.5" style="stroke:#181818;stroke-width:0.5;" width="95.2842" x="186.25" y="409.4883"/><line style="stroke:#181818;stroke-width:0.5;" x1="186.25" x2="281.5342" y1="435.9766" y2="435.9766"/><text fill="#000000" font-family="sans-serif" font-size="14" lengthAdjust="spacing" textLength="75.2842" x="196.25" y="428.0234">Authorized</text></g><g class="entity" data-qualified-name="OnRampPending" data-source-line="7" id="ent0010"><rect fill="#F1F1F1" height="50" rx="12.5" ry="12.5" style="stroke:#181818;stroke-width:0.5;" width="132.5332" x="167.62" y="569.4883"/><line style="stroke:#181818;stroke-width:0.5;" x1="167.62" x2="300.1532" y1="595.9766" y2="595.9766"/><text fill="#000000" font-family="sans-serif" font-size="14" lengthAdjust="spacing" textLength="112.5332" x="177.62" y="588.0234">OnRampPending</text></g><g class="entity" data-qualified-name="Bridging" data-source-line="8" id="ent0012"><rect fill="#F1F1F1" height="50" rx="12.5" ry="12.5" style="stroke:#181818;stroke-width:0.5;" width="76.834" x="202.47" y="729.4883"/><line style="stroke:#181818;stroke-width:0.5;" x1="202.47" x2="279.304" y1="755.9766" y2="755.9766"/><text fill="#000000" font-family="sans-serif" font-size="14" lengthAdjust="spacing" textLength="56.834" x="212.47" y="748.0234">Bridging</text></g><g class="entity" data-qualified-name="OffRampPending" data-source-line="9" id="ent0014"><rect fill="#F1F1F1" height="50" rx="12.5" ry="12.5" style="stroke:#181818;stroke-width:0.5;" width="134.1396" x="365.82" y="856.4883"/><line style="stroke:#181818;stroke-width:0.5;" x1="365.82" x2="499.9596" y1="882.9766" y2="882.9766"/><text fill="#000000" font-family="sans-serif" font-size="14" lengthAdjust="spacing" textLength="114.1396" x="375.82" y="875.0234">OffRampPending</text></g><g class="entity" data-qualified-name="Settled" data-source-line="10" id="ent0016"><rect fill="#F1F1F1" height="50" rx="12.5" ry="12.5" style="stroke:#181818;stroke-width:0.5;" width="66.4707" x="414.66" y="1069.4183"/><line style="stroke:#181818;stroke-width:0.5;" x1="414.66" x2="481.1307" y1="1095.9066" y2="1095.9066"/><text fill="#000000" font-family="sans-serif" font-size="14" lengthAdjust="spacing" textLength="46.4707" x="424.66" y="1087.9534">Settled</text></g><g class="end_entity" data-qualified-name=".end." data-source-line="11" id="ent0018"><ellipse cx="418.89" cy="1271.4183" fill="none" rx="11" ry="11" style="stroke:#222222;stroke-width:1;"/><ellipse cx="418.89" cy="1271.4183" fill="#222222" rx="6" ry="6" style="stroke:#222222;stroke-width:1;"/></g><g class="entity" data-qualified-name="Failed" data-source-line="14" id="ent0020"><rect fill="#F1F1F1" height="50" rx="12.5" ry="12.5" style="stroke:#181818;stroke-width:0.5;" width="59.9424" x="573.92" y="649.4883"/><line style="stroke:#181818;stroke-width:0.5;" x1="573.92" x2="633.8624" y1="675.9766" y2="675.9766"/><text fill="#000000" font-family="sans-serif" font-size="14" lengthAdjust="spacing" textLength="39.9424" x="583.92" y="668.0234">Failed</text></g><g class="entity" data-qualified-name="Refunding" data-source-line="15" id="ent0022"><rect fill="#F1F1F1" height="50" rx="12.5" ry="12.5" style="stroke:#181818;stroke-width:0.5;" width="89.4531" x="84.16" y="986.4483"/><line style="stroke:#181818;stroke-width:0.5;" x1="84.16" x2="173.6131" y1="1012.9366" y2="1012.9366"/><text fill="#000000" font-family="sans-serif" font-size="14" lengthAdjust="spacing" textLength="69.4531" x="94.16" y="1004.9834">Refunding</text></g><g class="entity" data-qualified-name="Refunded" data-source-line="18" id="ent0026"><rect fill="#F1F1F1" height="50" rx="12.5" ry="12.5" style="stroke:#181818;stroke-width:0.5;" width="84.5996" x="188.59" y="1149.4183"/><line style="stroke:#181818;stroke-width:0.5;" x1="188.59" x2="273.1896" y1="1175.9066" y2="1175.9066"/><text fill="#000000" font-family="sans-serif" font-size="14" lengthAdjust="spacing" textLength="64.5996" x="198.59" y="1167.9534">Refunded</text></g><g class="entity" data-qualified-name="GMN31" data-source-line="24" id="ent0032"><path d="M209.02,983.4883 L209.02,1007.4483 L174.06,1011.4483 L209.02,1015.4483 L209.02,1039.4199 A0,0 0 0 0 209.02,1039.4199 L440.7558,1039.4199 A0,0 0 0 0 440.7558,1039.4199 L440.7558,993.4883 L430.7558,983.4883 L209.02,983.4883 A0,0 0 0 0 209.02,983.4883" fill="#FEFFDD" style="stroke:#181818;stroke-width:0.5;"/><path d="M430.7558,983.4883 L430.7558,993.4883 L440.7558,993.4883 L430.7558,983.4883" fill="#FEFFDD" style="stroke:#181818;stroke-width:0.5;"/><text fill="#000000" font-family="sans-serif" font-size="13" lengthAdjust="spacing" textLength="206.0259" x="215.02" y="1001.0566">NFR 3 (Reliability): every transfer</text><text fill="#000000" font-family="sans-serif" font-size="13" lengthAdjust="spacing" textLength="210.7358" x="215.02" y="1016.3672">either completes or auto-refunds</text><text fill="#000000" font-family="sans-serif" font-size="13" lengthAdjust="spacing" textLength="113.9595" x="215.02" y="1031.6777">within 10 minutes</text></g><!--link *start* to Created--><g class="link" data-entity-1="ent0001" data-entity-2="ent0002" data-link-type="dependency" data-source-line="3" id="lnk3"><path d="M139.89,63.8683 C139.89,80.5983 139.89,111.0783 139.89,135.1083" fill="none" id="*start*-to-Created" style="stroke:#181818;stroke-width:1;"/><polygon fill="#181818" points="139.89,140.1083,143.89,131.1083,139.89,135.1083,135.89,131.1083,139.89,140.1083" style="stroke:#181818;stroke-width:1;stroke-linejoin:miter;stroke-miterlimit:10;"/><text fill="#000000" font-family="sans-serif" font-size="13" lengthAdjust="spacing" textLength="135.7827" x="140.89" y="107.0566">sender starts transfer</text></g><!--link Created to Quoted--><g class="link" data-entity-1="ent0002" data-entity-2="ent0004" data-link-type="dependency" data-source-line="4" id="lnk5"><path d="M139.89,190.8883 C139.89,212.9083 139.89,240.1483 139.89,262.1483" fill="none" id="Created-to-Quoted" style="stroke:#181818;stroke-width:1;"/><polygon fill="#181818" points="139.89,267.1483,143.89,258.1483,139.89,262.1483,135.89,258.1483,139.89,267.1483" style="stroke:#181818;stroke-width:1;stroke-linejoin:miter;stroke-miterlimit:10;"/><text fill="#000000" font-family="sans-serif" font-size="13" lengthAdjust="spacing" textLength="197.8882" x="140.89" y="234.0566">request quote (rate locked 60s)</text></g><!--link Quoted to Cancelled--><g class="link" data-entity-1="ent0004" data-entity-2="ent0006" data-link-type="dependency" data-source-line="5" id="lnk7"><path d="M104.69,303.9983 C83.9,312.2283 59.28,325.9683 46.89,347.4883 C21.29,391.9483 31.4198,450.0157 40.7798,484.2057" fill="none" id="Quoted-to-Cancelled" style="stroke:#181818;stroke-width:1;"/><polygon fill="#181818" points="42.1,489.0283,43.5816,479.2915,40.7798,484.2057,35.8655,481.4039,42.1,489.0283" style="stroke:#181818;stroke-width:1;stroke-linejoin:miter;stroke-miterlimit:10;"/><text fill="#000000" font-family="sans-serif" font-size="13" lengthAdjust="spacing" textLength="136.8809" x="47.89" y="368.5566">quote expires (&gt; 60s)</text></g><!--link Quoted to Authorized--><g class="link" data-entity-1="ent0004" data-entity-2="ent0008" data-link-type="dependency" data-source-line="6" id="lnk9"><path d="M167.1,317.7483 C176.02,326.5483 185.51,336.9383 192.89,347.4883 C206.45,366.8683 215.7739,386.7936 223.0239,404.7036" fill="none" id="Quoted-to-Authorized" style="stroke:#181818;stroke-width:1;"/><polygon fill="#181818" points="224.9,409.3383,225.2307,399.495,223.0239,404.7036,217.8152,402.4968,224.9,409.3383" style="stroke:#181818;stroke-width:1;stroke-linejoin:miter;stroke-miterlimit:10;"/><text fill="#000000" font-family="sans-serif" font-size="13" lengthAdjust="spacing" textLength="84.2842" x="216.4387" y="361.0566">confirm PIN /</text><text fill="#000000" font-family="sans-serif" font-size="13" lengthAdjust="spacing" textLength="92.5615" x="212.3" y="376.3672">sanctions pass</text></g><!--link Authorized to OnRampPending--><g class="link" data-entity-1="ent0008" data-entity-2="ent0010" data-link-type="dependency" data-source-line="7" id="lnk11"><path d="M233.89,459.8283 C233.89,489.5183 233.89,534.4183 233.89,564.1183" fill="none" id="Authorized-to-OnRampPending" style="stroke:#181818;stroke-width:1;"/><polygon fill="#181818" points="233.89,569.1183,237.89,560.1183,233.89,564.1183,229.89,560.1183,233.89,569.1183" style="stroke:#181818;stroke-width:1;stroke-linejoin:miter;stroke-miterlimit:10;"/><text fill="#000000" font-family="sans-serif" font-size="13" lengthAdjust="spacing" textLength="126.0708" x="234.89" y="519.5566">debit NGN via Mono</text></g><!--link OnRampPending to Bridging--><g class="link" data-entity-1="ent0010" data-entity-2="ent0012" data-link-type="dependency" data-source-line="8" id="lnk13"><path d="M234.97,619.8283 C236.28,649.5183 238.2797,694.4231 239.5897,724.1231" fill="none" id="OnRampPending-to-Bridging" style="stroke:#181818;stroke-width:1;"/><polygon fill="#181818" points="239.81,729.1183,243.4095,719.9508,239.5897,724.1231,235.4173,720.3033,239.81,729.1183" style="stroke:#181818;stroke-width:1;stroke-linejoin:miter;stroke-miterlimit:10;"/><text fill="#000000" font-family="sans-serif" font-size="13" lengthAdjust="spacing" textLength="96.021" x="265.2427" y="672.0566">NGN received /</text><text fill="#000000" font-family="sans-serif" font-size="13" lengthAdjust="spacing" textLength="147.6465" x="239.43" y="687.3672">bridge cNGN -&gt; cUSDC</text></g><!--link Bridging to OffRampPending--><g class="link" data-entity-1="ent0012" data-entity-2="ent0014" data-link-type="dependency" data-source-line="9" id="lnk15"><path d="M278.37,779.8883 C312.2,801.9083 357.5195,831.4207 391.3195,853.4207" fill="none" id="Bridging-to-OffRampPending" style="stroke:#181818;stroke-width:1;"/><polygon fill="#181818" points="395.51,856.1483,390.1491,847.8863,391.3195,853.4207,385.785,854.5911,395.51,856.1483" style="stroke:#181818;stroke-width:1;stroke-linejoin:miter;stroke-miterlimit:10;"/><text fill="#000000" font-family="sans-serif" font-size="13" lengthAdjust="spacing" textLength="176.376" x="349.39" y="823.0566">&gt;= 12 confirmations (~24s)</text></g><!--link OffRampPending to Settled--><g class="link" data-entity-1="ent0014" data-entity-2="ent0016" data-link-type="dependency" data-source-line="10" id="lnk17"><path d="M444.81,906.9383 C448.7,916.0083 452.61,926.5183 454.89,936.4883 C465.12,981.0983 462.08,993.8383 457.89,1039.4183 C456.99,1049.1983 456.1663,1054.9425 454.3463,1064.1825" fill="none" id="OffRampPending-to-Settled" style="stroke:#181818;stroke-width:1;"/><polygon fill="#181818" points="453.38,1069.0883,459.0439,1061.031,454.3463,1064.1825,451.1947,1059.4849,453.38,1069.0883" style="stroke:#181818;stroke-width:1;stroke-linejoin:miter;stroke-miterlimit:10;"/><text fill="#000000" font-family="sans-serif" font-size="13" lengthAdjust="spacing" textLength="155.6318" x="459.2" y="950.0566">M-Pesa credited (Daraja)</text></g><!--link Settled to *end*--><g class="link" data-entity-1="ent0016" data-entity-2="ent0018" data-link-type="dependency" data-source-line="11" id="lnk19"><path d="M443.86,1119.7483 C437.42,1158.6283 425.8873,1228.2155 421.3973,1255.3155" fill="none" id="Settled-to-*end*" style="stroke:#181818;stroke-width:1;"/><polygon fill="#181818" points="420.58,1260.2483,425.9973,1252.0231,421.3973,1255.3155,418.1049,1250.7155,420.58,1260.2483" style="stroke:#181818;stroke-width:1;stroke-linejoin:miter;stroke-miterlimit:10;"/></g><!--link Authorized to Failed--><g class="link" data-entity-1="ent0008" data-entity-2="ent0020" data-link-type="dependency" data-source-line="14" id="lnk21"><path d="M282.02,450.7683 C308.77,460.1883 342.15,473.5183 369.89,489.4883 C452.31,536.9183 533.4672,607.8255 574.6572,645.8755" fill="none" id="Authorized-to-Failed" style="stroke:#181818;stroke-width:1;"/><polygon fill="#181818" points="578.33,649.2683,574.4333,640.2231,574.6572,645.8755,569.0048,646.0995,578.33,649.2683" style="stroke:#181818;stroke-width:1;stroke-linejoin:miter;stroke-miterlimit:10;"/><text fill="#000000" font-family="sans-serif" font-size="13" lengthAdjust="spacing" textLength="177.5186" x="444.03" y="519.5566">sanctions hold / Mono error</text></g><!--link OnRampPending to Refunding--><g class="link" data-entity-1="ent0010" data-entity-2="ent0022" data-link-type="dependency" data-source-line="15" id="lnk23"><path d="M211.71,619.8183 C179.24,657.2683 120.21,732.7683 97.89,809.4883 C79.8,871.6883 101.7518,943.3206 116.6718,981.5406" fill="none" id="OnRampPending-to-Refunding" style="stroke:#181818;stroke-width:1;"/><polygon fill="#181818" points="118.49,986.1983,118.9433,976.3599,116.6718,981.5406,111.491,979.269,118.49,986.1983" style="stroke:#181818;stroke-width:1;stroke-linejoin:miter;stroke-miterlimit:10;"/><text fill="#000000" font-family="sans-serif" font-size="13" lengthAdjust="spacing" textLength="111.9917" x="98.89" y="823.0566">timeout &gt; 10 min</text></g><!--link Bridging to Refunding--><g class="link" data-entity-1="ent0012" data-entity-2="ent0022" data-link-type="dependency" data-source-line="16" id="lnk24"><path d="M234.37,779.7983 C230.4,793.6583 224.94,811.2483 218.89,826.4883 C195.55,885.3183 163.5402,946.8812 144.7402,981.6112" fill="none" id="Bridging-to-Refunding" style="stroke:#181818;stroke-width:1;"/><polygon fill="#181818" points="142.36,986.0083,150.1621,979.9977,144.7402,981.6112,143.1267,976.1893,142.36,986.0083" style="stroke:#181818;stroke-width:1;stroke-linejoin:miter;stroke-miterlimit:10;"/><text fill="#000000" font-family="sans-serif" font-size="13" lengthAdjust="spacing" textLength="88.2832" x="206.7" y="886.5566">chain rollback</text></g><!--link OffRampPending to Refunding--><g class="link" data-entity-1="ent0014" data-entity-2="ent0022" data-link-type="dependency" data-source-line="17" id="lnk25"><path d="M373.21,906.8783 C351.07,916.0383 325.78,926.6183 302.89,936.4883 C285.9,943.8183 281.89,946.1883 264.89,953.4883 C232.66,967.3183 224.24,969.9183 191.89,983.4883 C186.08,985.9283 184.5697,986.5479 178.5397,989.1179" fill="none" id="OffRampPending-to-Refunding" style="stroke:#181818;stroke-width:1;"/><polygon fill="#181818" points="173.94,991.0783,183.7877,991.2293,178.5397,989.1179,180.6511,983.8699,173.94,991.0783" style="stroke:#181818;stroke-width:1;stroke-linejoin:miter;stroke-miterlimit:10;"/><text fill="#000000" font-family="sans-serif" font-size="13" lengthAdjust="spacing" textLength="146.0405" x="303.89" y="950.0566">payout failed / timeout</text></g><!--link Refunding to Refunded--><g class="link" data-entity-1="ent0022" data-entity-2="ent0026" data-link-type="dependency" data-source-line="18" id="lnk27"><path d="M144.38,1036.8983 C163.61,1067.2383 193.5236,1114.4549 212.7436,1144.7849" fill="none" id="Refunding-to-Refunded" style="stroke:#181818;stroke-width:1;"/><polygon fill="#181818" points="215.42,1149.0083,213.9813,1139.2651,212.7436,1144.7849,207.2238,1143.5472,215.42,1149.0083" style="stroke:#181818;stroke-width:1;stroke-linejoin:miter;stroke-miterlimit:10;"/><text fill="#000000" font-family="sans-serif" font-size="13" lengthAdjust="spacing" textLength="150.7759" x="195.99" y="1099.4866">NGN returned to sender</text></g><!--link Refunded to *end*--><g class="link" data-entity-1="ent0026" data-entity-2="ent0018" data-link-type="dependency" data-source-line="19" id="lnk28"><path d="M273.55,1196.9783 C317.97,1219.4183 379.9873,1250.7635 404.7073,1263.2535" fill="none" id="Refunded-to-*end*" style="stroke:#181818;stroke-width:1;"/><polygon fill="#181818" points="409.17,1265.5083,402.941,1257.8794,404.7073,1263.2535,399.3333,1265.0198,409.17,1265.5083" style="stroke:#181818;stroke-width:1;stroke-linejoin:miter;stroke-miterlimit:10;"/></g><!--link Failed to *end*--><g class="link" data-entity-1="ent0020" data-entity-2="ent0018" data-link-type="dependency" data-source-line="20" id="lnk29"><path d="M624.51,699.7583 C645.16,726.6083 673.89,772.0383 673.89,816.9883 C673.89,816.9883 673.89,816.9883 673.89,1175.4183 C673.89,1228.3283 483.6029,1260.6248 434.7929,1268.0648" fill="none" id="Failed-to-*end*" style="stroke:#181818;stroke-width:1;"/><polygon fill="#181818" points="429.85,1268.8183,439.35,1271.4164,434.7929,1268.0648,438.1445,1263.5078,429.85,1268.8183" style="stroke:#181818;stroke-width:1;stroke-linejoin:miter;stroke-miterlimit:10;"/></g><!--link Cancelled to *end*--><g class="link" data-entity-1="ent0006" data-entity-2="ent0018" data-link-type="dependency" data-source-line="21" id="lnk30"><path d="M45.15,539.7383 C39.52,570.6583 30.89,625.8283 30.89,673.4883 C30.89,673.4883 30.89,673.4883 30.89,1175.4183 C30.89,1255.1683 339.0821,1268.1529 402.7021,1270.0029" fill="none" id="Cancelled-to-*end*" style="stroke:#181818;stroke-width:1;"/><polygon fill="#181818" points="407.7,1270.1483,398.8201,1265.8884,402.7021,1270.0029,398.5875,1273.885,407.7,1270.1483" style="stroke:#181818;stroke-width:1;stroke-linejoin:miter;stroke-miterlimit:10;"/></g><?plantuml-src RPDFRnCn4CNl_XHp8q5QfIs8GoGYGQ8Y91922YVWu7XdiqEzTZhsfeG3dvtnEfi_fRVr-lSyyzxOaQ95cFf79eG2xgAE27DjQd88Cz8RriqOlh9sGPj8ti4dgj3iZKMblh_y2KKnWIcZo4eOGq1N8aE8ccE0c6GLikg117zfVMOP7reC4HxI3nXmgcozkPVDDrTXg0vWLq0xWzPsiepZxoqn1XXC_eFVjR7sJ7ywsdXN4JUm_BY0qGynuJeN0ROw17M69kLdjzBDTYaUo6r4NEAQ8Ym-B6176kRUUNM99D5xfdAJ-KGo6gIT72ZLrcaBmQJ_GfflTxEfEl9TnQgwB3bv2zStVTSwjphuU_DQB3vXa_mEOyofp8ib1Ws6iQGKn62cMV_IGzKZ2PTvAVL2Fei2AassPOIHT5orhfH0OXswlQUnt0gQftjCh_PM77QH039xVYQOLNTkjXMfGTz6cC3r5JJaBbCu9qsjoG5xQzVQt3zd-fpUwdqwjieTZlewwiIS59s5FABOifDbz8SBguv47zF1SxyyNS1ZZYvTGwPD7S5NfwOKmE9s1QzWi49BUasMuduu1jmXxqyl0W0frl9KZ6-s5gDSPS-Ws-YBF8yWoACW4aQEh1L6IRUG2ly3?></g></svg>