<svg xmlns="http://www.w3.org/2000/svg" xmlns:xlink="http://www.w3.org/1999/xlink" contentStyleType="text/css" data-diagram-type="DESCRIPTION" height="1000px" preserveAspectRatio="none" style="width:2361px;height:1000px;background:#FFFFFF;" version="1.1" viewBox="0 0 2361 1000" width="2361px" zoomAndPan="magnify"><?plantuml 1.2026.6?><defs/><g><g class="title" data-source-line="1"><text fill="#000000" font-family="sans-serif" font-size="14" font-weight="700" lengthAdjust="spacing" textLength="359.7959" x="997.4791" y="23.5352">Cowrie - Deployment Diagram (Launch Topology)</text></g><!--cluster Device--><g class="cluster" data-qualified-name="Device" data-source-line="4" id="ent0001"><polygon fill="none" points="181.4119,53.4883,191.4119,43.4883,501.4119,43.4883,501.4119,161.4583,491.4119,171.4583,181.4119,171.4583,181.4119,53.4883" style="stroke:#181818;stroke-width:1;stroke-linejoin:miter;stroke-miterlimit:10;"/><line style="stroke:#181818;stroke-width:1;" x1="491.4119" x2="501.4119" y1="53.4883" y2="43.4883"/><line style="stroke:#181818;stroke-width:1;" x1="181.4119" x2="491.4119" y1="53.4883" y2="53.4883"/><line style="stroke:#181818;stroke-width:1;" x1="491.4119" x2="491.4119" y1="53.4883" y2="171.4583"/><text fill="#000000" font-family="sans-serif" font-size="14" font-weight="700" lengthAdjust="spacing" textLength="185.582" x="244.6208" y="70.0234">Sender / Recipient Device</text><text fill="#000000" font-family="sans-serif" font-size="14" font-weight="700" lengthAdjust="spacing" textLength="244.5488" x="215.1374" y="86.5117">(Android 8+ / iOS 14+ / Browser)</text></g><!--cluster Web--><g class="cluster" data-qualified-name="Web" data-source-line="8" id="ent0003"><polygon fill="none" points="525.4119,61.7283,535.4119,51.7283,914.4119,51.7283,914.4119,153.2183,904.4119,163.2183,525.4119,163.2183,525.4119,61.7283" style="stroke:#181818;stroke-width:1;stroke-linejoin:miter;stroke-miterlimit:10;"/><line style="stroke:#181818;stroke-width:1;" x1="904.4119" x2="914.4119" y1="61.7283" y2="51.7283"/><line style="stroke:#181818;stroke-width:1;" x1="525.4119" x2="904.4119" y1="61.7283" y2="61.7283"/><line style="stroke:#181818;stroke-width:1;" x1="904.4119" x2="904.4119" y1="61.7283" y2="163.2183"/><text fill="#000000" font-family="sans-serif" font-size="14" font-weight="700" lengthAdjust="spacing" textLength="225.7227" x="603.0505" y="78.2634">Admin / Regulator Workstation</text><text fill="#000000" font-family="sans-serif" font-size="14" font-weight="700" lengthAdjust="spacing" textLength="202.6309" x="614.5964" y="94.7517">(Chrome 110+ / Safari 15+)</text></g><!--cluster Railway--><g class="cluster" data-qualified-name="Railway" data-source-line="13" id="ent0006"><path d="M59.098,256.3986 C79.1464,213.3927 117.4993,213.3446 144.0752,249.3811 C163.9713,212.4467 195.5592,209.7838 220.1,244.4494 C240.1207,210.3844 266.3104,215.241 286.6282,244.1354 C305.9847,203.0848 343.143,209.938 364.291,242.2387 C384.9688,200.2342 420.1944,199.3987 443.1459,240.0701 C461.617,201.6748 500.4391,203.9759 521.8813,236.7847 C551.6804,199.1504 577.8678,203.6862 597.8787,246.0801 C612.2214,214.5862 642.0296,208.7752 662.4334,239.8241 C686.8219,203.8466 723.3264,191.9932 748.8988,238.5843 C771.2247,208.5469 807.7186,209.7291 826.6271,242.7939 C846.3476,207.0742 876.6716,214.432 895.5742,243.6622 C919.5324,206.7703 951.8914,215.9014 970.9448,248.948 C995.0025,205.5144 1021.7037,208.5208 1049.6259,245.1502 C1075.187,210.8557 1101.7803,217.1584 1122.4119,250.4583 C1128.2789,250.1778 1131.5479,254.2524 1128.0048,259.6795 C1161.9225,279.638 1163.4248,316.4457 1132.2431,339.8459 C1160.2732,363.0004 1169.2106,385.7868 1131.4757,408.2031 C1181.303,433.8846 1175.006,468.5543 1134.723,497.5123 C1164.7247,527.1901 1157.4708,560.3983 1115.4119,571.1883 C1119.6955,566.9762 1125.1992,568.1652 1126.5305,574.3467 C1103.5051,611.6356 1074.7748,616.517 1047.4052,578.9379 C1025.3177,609.0729 996.397,612.0872 974.4788,578.7433 C958.2895,614.298 921.4066,611.9386 901.2592,583.2548 C883.9722,623.6756 846.6553,617.838 826.187,586.587 C797.3275,620.3225 769.0282,616.6423 748.562,577.6309 C724.2815,620.8719 695.2483,618.8757 669.7208,578.811 C649.3548,617.2278 618.5532,614.6207 598.4983,578.5136 C583.3733,621.1697 549.8223,620.4996 524.166,589.0816 C502.0262,629.253 461.9559,624.8184 439.4539,589.488 C417.4999,624.4098 381.999,622.7695 365.7594,583.7897 C339.1599,621.9847 307.3829,619.0408 289.4913,575.6493 C273.275,609.224 238.692,613.7957 216.9326,581.7815 C194.785,619.6601 170.1002,619.6596 146.7895,582.8741 C106.8031,616.6221 73.4763,621.9188 51.4119,564.1883 C56.6102,559.5466 61.4892,558.9025 64.3007,566.6678 C22.2859,542.6101 26.6216,519.4616 59.6647,490.8164 C19.0447,467.025 12.9937,441.0993 52.9374,410.5551 C21.565,388.1108 18.3667,358.5399 54.5804,337.6181 C6,307.9413 18.423,269.5311 58.4119,243.4583 C64.2975,247.5659 65.4434,251.6425 59.098,256.3986" fill="none" style="stroke:#181818;stroke-width:1;"/><text fill="#000000" font-family="sans-serif" font-size="14" font-weight="700" lengthAdjust="spacing" textLength="238.8477" x="467.488" y="261.9934">Railway (Python 3.12 Containers)</text></g><!--cluster Orch--><g class="cluster" data-qualified-name="Railway.Orch" data-source-line="14" id="ent0007"><polygon fill="none" points="75.4119,296.4583,85.4119,286.4583,641.4119,286.4583,641.4119,537.1883,631.4119,547.1883,75.4119,547.1883,75.4119,296.4583" style="stroke:#181818;stroke-width:1;stroke-linejoin:miter;stroke-miterlimit:10;"/><line style="stroke:#181818;stroke-width:1;" x1="631.4119" x2="641.4119" y1="296.4583" y2="286.4583"/><line style="stroke:#181818;stroke-width:1;" x1="75.4119" x2="631.4119" y1="296.4583" y2="296.4583"/><line style="stroke:#181818;stroke-width:1;" x1="631.4119" x2="631.4119" y1="296.4583" y2="547.1883"/><text fill="#000000" font-family="sans-serif" font-size="14" font-weight="700" lengthAdjust="spacing" textLength="162.8936" x="272.9651" y="312.9934">Orchestration Services</text></g><!--cluster Base--><g class="cluster" data-qualified-name="Base" data-source-line="25" id="ent0014"><path d="M1867.882,647.8128 C1875.2182,634.9168 1883.4283,632.0261 1894.1616,644.2603 C1904.5266,632.1594 1912.8326,633.5999 1919.3225,647.9468 C1927.0617,635.2161 1935.5748,635.633 1945.2793,645.7101 C1952.2044,635.105 1961.372,635.6444 1967.3822,646.6461 C1976.5069,632.9539 1986.141,635.4033 1995.1431,646.782 C1999.6794,636.5052 2009.9608,632.6371 2017.1868,644.0481 C2024.0526,630.0685 2036.4071,632.6654 2043.5978,643.7052 C2052.1588,630.6598 2063.3697,632.296 2069.2818,646.2272 C2076.1954,635.7954 2087.5898,634.1094 2093.8979,646.8699 C2100.2065,636.271 2111.9881,633.9863 2119.032,646.0546 C2126.825,634.2144 2137.8611,632.2281 2146.578,645.0215 C2155.851,633.9714 2163.6558,635.9483 2169.9641,648.0201 C2177.0378,637.0444 2184.9079,635.8407 2194.2459,645.3338 C2207.9769,630.7351 2217.8374,633.0134 2225.4119,651.1883 C2228.3396,650.5288 2229.8767,652.4583 2229.1293,655.2023 C2238.0667,661.6575 2237.5441,672.8192 2227.0426,677.4512 C2242.3335,683.394 2242.715,697.1697 2229.8886,705.9231 C2242.0816,714.3057 2242.0917,722.571 2229.031,730.0563 C2244.7583,734.6579 2246.1329,747.6666 2234.215,757.4918 C2246.031,765.4747 2244.6343,777.4648 2232.5638,783.9574 C2243.7217,790.8272 2244.6456,800.2785 2234.7666,808.9988 C2246.5728,818.2927 2243.0191,826.58 2232.0036,833.2766 C2247.4935,842.8147 2246.9593,852.1431 2232.4361,862.1311 C2242.6155,868.1272 2243.2155,878.6507 2231.7572,883.9743 C2243.1953,892.0296 2240.782,903.8295 2228.9689,909.3278 C2242.0529,916.5928 2244.2784,930.8708 2230.1514,939.2124 C2239.6047,953.8813 2237.3762,964.7115 2218.4119,967.6483 C2219.815,966.662 2220.5298,967.2895 2220.9404,968.6967 C2214.7718,980.2215 2205.3276,981.1387 2196.1651,972.3478 C2186.7408,982.1862 2177.3376,983.9557 2171.0187,969.1758 C2165.4895,982.898 2152.3808,984.9687 2143.5395,972.6742 C2136.5057,984.6538 2125.6439,984.0408 2119.5902,971.7087 C2111.5782,982.7715 2102.0772,980.443 2096.6768,969.0445 C2088.0812,984.6263 2077.1866,981.5388 2068.14,969.5106 C2061.9345,981.1092 2051.025,985.129 2042.393,972.0413 C2035.0919,981.6945 2025.7265,983.242 2019.772,970.6707 C2012.952,983.4962 2001.4223,983.4407 1994.3357,970.9385 C1986.0328,983.3897 1978.088,981.2739 1970.0715,970.6375 C1962.6583,982.6846 1951.1808,981.3982 1945.179,969.189 C1936.2414,982.519 1928.0863,981.2306 1918.9866,969.3573 C1911.4621,982.5911 1898.3049,983.6983 1891.1902,968.9503 C1878.5423,983.7779 1863.3889,976.1067 1858.4119,960.6483 C1860.653,961.3754 1861.0223,963.2967 1859.077,964.7094 C1845.0898,955.0348 1844.0206,944.2277 1859.771,935.2538 C1850.1187,928.5806 1848.9742,920.5341 1859.3539,913.4773 C1846.4715,905.5587 1844.9521,897.745 1857.1108,887.6515 C1842.3344,879.6541 1843.2873,865.4977 1857.2727,857.6555 C1844.4121,852.4915 1843.3901,843.0875 1853.9525,834.5567 C1840.6939,825.3864 1840.1397,814.6728 1855.4613,807.0716 C1843.2354,800.0946 1844.8252,792.4118 1854.144,784.1944 C1842.2088,775.333 1846.0467,763.1069 1858.5049,758.3637 C1844.6004,750.7176 1847.4502,738.1303 1859.7888,731.7502 C1847.1976,723.8216 1843.7822,711.7402 1858.8201,702.8843 C1846.2509,696.6294 1846.8346,685.4563 1858.9192,679.305 C1842.0484,664.8887 1847.6623,652.2038 1865.4119,644.1883 C1867.9658,643.9323 1869.0744,645.5155 1867.882,647.8128" fill="none" style="stroke:#181818;stroke-width:1;"/><text fill="#000000" font-family="sans-serif" font-size="14" font-weight="700" lengthAdjust="spacing" textLength="131.0313" x="1976.3962" y="662.7234">Base Network (L2)</text></g><!--cluster Ext--><g class="cluster" data-qualified-name="Ext" data-source-line="32" id="ent0019"><path d="M1402.6458,448.1914 C1420.5074,418.96 1449.602,418.0886 1470.5365,444.4379 C1493.7941,414.2142 1517.1746,422.3507 1534.9133,450.5221 C1553.9355,420.4296 1576.4213,415.0324 1601.8155,443.2056 C1617.5092,413.898 1648.7434,410.8387 1666.3751,441.1054 C1680.7434,409.1958 1710.116,416.8636 1725.2735,440.265 C1747.6811,408.0567 1777.3431,416.6155 1793.5784,447.0006 C1813.4453,410.5053 1838.849,413.7772 1860.8458,444.8812 C1882.7826,415.7558 1903.4902,414.9132 1926.2376,443.9702 C1946.7359,410.362 1969.302,414.0923 1991.7416,441.8997 C2010.1666,411.6821 2041.8722,415.173 2055.941,446.4478 C2078.836,421.1523 2100.6332,421.5378 2119.6257,450.9876 C2140.0583,428.1829 2158.6455,422.1204 2176.8145,453.3818 C2194.5363,427.1591 2224.3069,424.1592 2242.2101,453.167 C2264.2483,418.0659 2289.2291,421.1182 2312.4119,451.9483 C2313.3616,452.2347 2313.5635,452.9504 2312.858,453.6666 C2323.0935,458.2802 2325.9456,467.5588 2315.1826,474.5139 C2326.8502,480.5795 2329.9032,488.219 2318.3995,497.5241 C2327.7301,505.6309 2326.6402,512.432 2315.9435,518.1546 C2322.8376,530.7379 2322.0969,540.3689 2305.4119,542.9283 C2312.2096,542.9095 2316.9879,547.3157 2313.3432,554.4718 C2293.8329,583.9457 2263.9306,585.6047 2246.7398,552.0218 C2230.1664,587.4471 2202.4998,580.7151 2182.5396,555.6141 C2162.4194,585.7097 2140.0942,591.4508 2116.6024,559.1786 C2096.1591,594.7148 2070.331,591.3908 2050.3866,558.6946 C2030.6432,582.1508 2008.4507,585.1288 1990.4497,556.6825 C1971.3411,593.6776 1941.9486,597.4641 1918.3934,561.047 C1903.3371,587.2555 1873.9946,597.282 1855.5481,564.6691 C1835.529,588.4267 1814.5791,589.7218 1799.9136,559.1834 C1778.5934,593.5328 1747.4617,590.5911 1732.4466,553.2498 C1718.4114,586.6923 1689.3702,582.0906 1670.9512,557.9297 C1645.2541,594.9808 1618.828,586.7557 1596.048,554.765 C1571.3074,582.8011 1553.3686,575.405 1534.6714,548.0666 C1517.9714,579.1455 1486.9488,573.2832 1471.2844,546.9237 C1442.2821,575.7613 1412.9904,579.9664 1394.4119,535.9283 C1396.0929,535.4162 1397.3286,536.4191 1396.6844,538.2164 C1385.4352,534.3975 1387.0594,524.7511 1394.4414,518.782 C1383.6618,511.8245 1380.8883,504.9299 1391.8852,495.5738 C1381.6672,488.4518 1380.4739,482.1941 1391.5522,474.7319 C1382.3111,460.1984 1381.8622,449.9508 1401.4119,444.9483 C1403.1517,445.3374 1403.875,446.6726 1402.6458,448.1914" fill="none" style="stroke:#181818;stroke-width:1;"/><text fill="#000000" font-family="sans-serif" font-size="14" font-weight="700" lengthAdjust="spacing" textLength="124.0449" x="1791.3894" y="463.4834">External Partners</text></g><!--entity APP--><g class="entity" data-qualified-name="Device.APP" data-source-line="5" id="ent0002"><rect fill="#F1F1F1" height="55.9766" rx="2.5" ry="2.5" style="stroke:#181818;stroke-width:0.5;" width="191.9502" x="293.4319" y="99.4883"/><polygon fill="#F1F1F1" points="468.382,104.4883,468.382,118.4883,480.382,118.4883,480.382,110.4883,474.382,104.4883,468.382,104.4883" style="stroke:#181818;stroke-width:0.5;stroke-linejoin:miter;stroke-miterlimit:10;"/><line style="stroke:#181818;stroke-width:0.5;" x1="474.382" x2="474.382" y1="104.4883" y2="110.4883"/><line style="stroke:#181818;stroke-width:0.5;" x1="480.382" x2="474.382" y1="110.4883" y2="110.4883"/><text fill="#000000" font-family="sans-serif" font-size="14" lengthAdjust="spacing" textLength="69.4326" x="303.4319" y="126.0234">CowriePay</text><text fill="#000000" font-family="sans-serif" font-size="14" lengthAdjust="spacing" textLength="161.9502" x="303.4319" y="142.5117">(React Native 0.74 PWA)</text></g><!--entity ADM--><g class="entity" data-qualified-name="Web.ADM" data-source-line="9" id="ent0004"><rect fill="#F1F1F1" height="39.4883" rx="2.5" ry="2.5" style="stroke:#181818;stroke-width:0.5;" width="183.0498" x="541.8919" y="107.7283"/><polygon fill="#F1F1F1" points="707.9417,112.7283,707.9417,126.7283,719.9417,126.7283,719.9417,118.7283,713.9417,112.7283,707.9417,112.7283" style="stroke:#181818;stroke-width:0.5;stroke-linejoin:miter;stroke-miterlimit:10;"/><line style="stroke:#181818;stroke-width:0.5;" x1="713.9417" x2="713.9417" y1="112.7283" y2="118.7283"/><line style="stroke:#181818;stroke-width:0.5;" x1="719.9417" x2="713.9417" y1="118.7283" y2="118.7283"/><text fill="#000000" font-family="sans-serif" font-size="14" lengthAdjust="spacing" textLength="153.0498" x="551.8919" y="134.2634">Admin Console (RBAC)</text></g><!--entity RP--><g class="entity" data-qualified-name="Web.RP" data-source-line="10" id="ent0005"><rect fill="#F1F1F1" height="39.4883" rx="2.5" ry="2.5" style="stroke:#181818;stroke-width:0.5;" width="138.9238" x="759.9519" y="107.7283"/><polygon fill="#F1F1F1" points="881.8757,112.7283,881.8757,126.7283,893.8757,126.7283,893.8757,118.7283,887.8757,112.7283,881.8757,112.7283" style="stroke:#181818;stroke-width:0.5;stroke-linejoin:miter;stroke-miterlimit:10;"/><line style="stroke:#181818;stroke-width:0.5;" x1="887.8757" x2="887.8757" y1="112.7283" y2="118.7283"/><line style="stroke:#181818;stroke-width:0.5;" x1="893.8757" x2="887.8757" y1="118.7283" y2="118.7283"/><text fill="#000000" font-family="sans-serif" font-size="14" lengthAdjust="spacing" textLength="108.9238" x="769.9519" y="134.2634">Regulator Portal</text></g><!--entity PG--><g class="entity" data-qualified-name="Railway.PG" data-source-line="19" id="ent0011"><path d="M665.2619,482.4483 C665.2619,472.4483 770.4147,472.4483 770.4147,472.4483 C770.4147,472.4483 875.5675,472.4483 875.5675,482.4483 L875.5675,524.4248 C875.5675,534.4248 770.4147,534.4248 770.4147,534.4248 C770.4147,534.4248 665.2619,534.4248 665.2619,524.4248 L665.2619,482.4483" fill="#F1F1F1" style="stroke:#181818;stroke-width:0.5;"/><path d="M665.2619,482.4483 C665.2619,492.4483 770.4147,492.4483 770.4147,492.4483 C770.4147,492.4483 875.5675,492.4483 875.5675,482.4483" fill="none" style="stroke:#181818;stroke-width:0.5;"/><text fill="#000000" font-family="sans-serif" font-size="14" lengthAdjust="spacing" textLength="98.9844" x="675.2619" y="509.9834">PostgreSQL 15</text><text fill="#000000" font-family="sans-serif" font-size="14" lengthAdjust="spacing" textLength="190.3057" x="675.2619" y="526.4717">(off-chain state + audit log)</text></g><!--entity RD--><g class="entity" data-qualified-name="Railway.RD" data-source-line="20" id="ent0012"><path d="M910.7919,482.4483 C910.7919,472.4483 1012.4071,472.4483 1012.4071,472.4483 C1012.4071,472.4483 1114.0223,472.4483 1114.0223,482.4483 L1114.0223,524.4248 C1114.0223,534.4248 1012.4071,534.4248 1012.4071,534.4248 C1012.4071,534.4248 910.7919,534.4248 910.7919,524.4248 L910.7919,482.4483" fill="#F1F1F1" style="stroke:#181818;stroke-width:0.5;"/><path d="M910.7919,482.4483 C910.7919,492.4483 1012.4071,492.4483 1012.4071,492.4483 C1012.4071,492.4483 1114.0223,492.4483 1114.0223,482.4483" fill="none" style="stroke:#181818;stroke-width:0.5;"/><text fill="#000000" font-family="sans-serif" font-size="14" lengthAdjust="spacing" textLength="49.9297" x="920.7919" y="509.9834">Redis 7</text><text fill="#000000" font-family="sans-serif" font-size="14" lengthAdjust="spacing" textLength="183.2305" x="920.7919" y="526.4717">(cache / rate limit / queue)</text></g><!--entity Svc1--><g class="entity" data-qualified-name="Railway.Orch.Svc1" data-source-line="15" id="ent0008"><rect fill="#F1F1F1" height="39.4883" rx="2.5" ry="2.5" style="stroke:#181818;stroke-width:0.5;" width="225.1592" x="99.8319" y="334.4583"/><polygon fill="#F1F1F1" points="307.991,339.4583,307.991,353.4583,319.991,353.4583,319.991,345.4583,313.991,339.4583,307.991,339.4583" style="stroke:#181818;stroke-width:0.5;stroke-linejoin:miter;stroke-miterlimit:10;"/><line style="stroke:#181818;stroke-width:0.5;" x1="313.991" x2="313.991" y1="339.4583" y2="345.4583"/><line style="stroke:#181818;stroke-width:0.5;" x1="319.991" x2="313.991" y1="345.4583" y2="345.4583"/><text fill="#000000" font-family="sans-serif" font-size="14" lengthAdjust="spacing" textLength="195.1592" x="109.8319" y="360.9934">Auth / Transfer / Quote / FX</text></g><!--entity Svc2--><g class="entity" data-qualified-name="Railway.Orch.Svc2" data-source-line="16" id="ent0009"><rect fill="#F1F1F1" height="39.4883" rx="2.5" ry="2.5" style="stroke:#181818;stroke-width:0.5;" width="238.0996" x="360.3619" y="334.4583"/><polygon fill="#F1F1F1" points="581.4615,339.4583,581.4615,353.4583,593.4615,353.4583,593.4615,345.4583,587.4615,339.4583,581.4615,339.4583" style="stroke:#181818;stroke-width:0.5;stroke-linejoin:miter;stroke-miterlimit:10;"/><line style="stroke:#181818;stroke-width:0.5;" x1="587.4615" x2="587.4615" y1="339.4583" y2="345.4583"/><line style="stroke:#181818;stroke-width:0.5;" x1="593.4615" x2="587.4615" y1="345.4583" y2="345.4583"/><text fill="#000000" font-family="sans-serif" font-size="14" lengthAdjust="spacing" textLength="208.0996" x="370.3619" y="360.9934">KYC / Sanctions / Reserve Mgr</text></g><!--entity Svc3--><g class="entity" data-qualified-name="Railway.Orch.Svc3" data-source-line="17" id="ent0010"><rect fill="#F1F1F1" height="39.4883" rx="2.5" ry="2.5" style="stroke:#181818;stroke-width:0.5;" width="240.3965" x="99.2119" y="483.6983"/><polygon fill="#F1F1F1" points="322.6083,488.6983,322.6083,502.6983,334.6083,502.6983,334.6083,494.6983,328.6083,488.6983,322.6083,488.6983" style="stroke:#181818;stroke-width:0.5;stroke-linejoin:miter;stroke-miterlimit:10;"/><line style="stroke:#181818;stroke-width:0.5;" x1="328.6083" x2="328.6083" y1="488.6983" y2="494.6983"/><line style="stroke:#181818;stroke-width:0.5;" x1="334.6083" x2="328.6083" y1="494.6983" y2="494.6983"/><text fill="#000000" font-family="sans-serif" font-size="14" lengthAdjust="spacing" textLength="210.3965" x="109.2119" y="510.2334">Webhook / Audit / Notification</text></g><!--entity CUSDC--><g class="entity" data-qualified-name="Base.CUSDC" data-source-line="26" id="ent0015"><rect fill="#F1F1F1" height="39.4883" rx="2.5" ry="2.5" style="stroke:#181818;stroke-width:0.5;" width="140.0518" x="1883.3819" y="912.1583"/><polygon fill="#F1F1F1" points="2006.4336,917.1583,2006.4336,931.1583,2018.4336,931.1583,2018.4336,923.1583,2012.4336,917.1583,2006.4336,917.1583" style="stroke:#181818;stroke-width:0.5;stroke-linejoin:miter;stroke-miterlimit:10;"/><line style="stroke:#181818;stroke-width:0.5;" x1="2012.4336" x2="2012.4336" y1="917.1583" y2="923.1583"/><line style="stroke:#181818;stroke-width:0.5;" x1="2018.4336" x2="2012.4336" y1="923.1583" y2="923.1583"/><text fill="#000000" font-family="sans-serif" font-size="14" lengthAdjust="spacing" textLength="110.0518" x="1893.3819" y="938.6934">cUSDC (ERC-20)</text></g><!--entity CNGN--><g class="entity" data-qualified-name="Base.CNGN" data-source-line="27" id="ent0016"><rect fill="#F1F1F1" height="39.4883" rx="2.5" ry="2.5" style="stroke:#181818;stroke-width:0.5;" width="133.4414" x="2066.6919" y="912.1583"/><polygon fill="#F1F1F1" points="2183.1333,917.1583,2183.1333,931.1583,2195.1333,931.1583,2195.1333,923.1583,2189.1333,917.1583,2183.1333,917.1583" style="stroke:#181818;stroke-width:0.5;stroke-linejoin:miter;stroke-miterlimit:10;"/><line style="stroke:#181818;stroke-width:0.5;" x1="2189.1333" x2="2189.1333" y1="917.1583" y2="923.1583"/><line style="stroke:#181818;stroke-width:0.5;" x1="2195.1333" x2="2189.1333" y1="923.1583" y2="923.1583"/><text fill="#000000" font-family="sans-serif" font-size="14" lengthAdjust="spacing" textLength="103.4414" x="2076.6919" y="938.6934">cNGN (ERC-20)</text></g><!--entity BRG--><g class="entity" data-qualified-name="Base.BRG" data-source-line="28" id="ent0017"><rect fill="#F1F1F1" height="39.4883" rx="2.5" ry="2.5" style="stroke:#181818;stroke-width:0.5;" width="135.6768" x="2065.5719" y="795.6683"/><polygon fill="#F1F1F1" points="2184.2486,800.6683,2184.2486,814.6683,2196.2486,814.6683,2196.2486,806.6683,2190.2486,800.6683,2184.2486,800.6683" style="stroke:#181818;stroke-width:0.5;stroke-linejoin:miter;stroke-miterlimit:10;"/><line style="stroke:#181818;stroke-width:0.5;" x1="2190.2486" x2="2190.2486" y1="800.6683" y2="806.6683"/><line style="stroke:#181818;stroke-width:0.5;" x1="2196.2486" x2="2190.2486" y1="806.6683" y2="806.6683"/><text fill="#000000" font-family="sans-serif" font-size="14" lengthAdjust="spacing" textLength="105.6768" x="2075.5719" y="822.2034">Bridge Contract</text></g><!--entity SAFE--><g class="entity" data-qualified-name="Base.SAFE" data-source-line="29" id="ent0018"><rect fill="#F1F1F1" height="39.4883" rx="2.5" ry="2.5" style="stroke:#181818;stroke-width:0.5;" width="168.7217" x="1941.0519" y="679.1883"/><polygon fill="#F1F1F1" points="2092.7735,684.1883,2092.7735,698.1883,2104.7735,698.1883,2104.7735,690.1883,2098.7735,684.1883,2092.7735,684.1883" style="stroke:#181818;stroke-width:0.5;stroke-linejoin:miter;stroke-miterlimit:10;"/><line style="stroke:#181818;stroke-width:0.5;" x1="2098.7735" x2="2098.7735" y1="684.1883" y2="690.1883"/><line style="stroke:#181818;stroke-width:0.5;" x1="2104.7735" x2="2098.7735" y1="690.1883" y2="690.1883"/><text fill="#000000" font-family="sans-serif" font-size="14" lengthAdjust="spacing" textLength="138.7217" x="1951.0519" y="705.7234">Safe 3-of-5 Multisig</text></g><!--entity Mono--><g class="entity" data-qualified-name="Ext.Mono" data-source-line="33" id="ent0020"><polygon fill="#F1F1F1" points="1402.8819,481.9483,1412.8819,471.9483,1547.9502,471.9483,1547.9502,524.9248,1537.9502,534.9248,1402.8819,534.9248,1402.8819,481.9483" style="stroke:#181818;stroke-width:0.5;stroke-linejoin:miter;stroke-miterlimit:10;"/><line style="stroke:#181818;stroke-width:0.5;" x1="1537.9502" x2="1547.9502" y1="481.9483" y2="471.9483"/><line style="stroke:#181818;stroke-width:0.5;" x1="1402.8819" x2="1537.9502" y1="481.9483" y2="481.9483"/><line style="stroke:#181818;stroke-width:0.5;" x1="1537.9502" x2="1537.9502" y1="481.9483" y2="534.9248"/><text fill="#000000" font-family="sans-serif" font-size="14" lengthAdjust="spacing" textLength="37.9463" x="1417.8819" y="505.4834">Mono</text><text fill="#000000" font-family="sans-serif" font-size="14" lengthAdjust="spacing" textLength="105.0684" x="1417.8819" y="521.9717">(NGN on-ramp)</text></g><!--entity Daraja--><g class="entity" data-qualified-name="Ext.Daraja" data-source-line="34" id="ent0021"><polygon fill="#F1F1F1" points="1583.1919,481.9483,1593.1919,471.9483,1749.6294,471.9483,1749.6294,524.9248,1739.6294,534.9248,1583.1919,534.9248,1583.1919,481.9483" style="stroke:#181818;stroke-width:0.5;stroke-linejoin:miter;stroke-miterlimit:10;"/><line style="stroke:#181818;stroke-width:0.5;" x1="1739.6294" x2="1749.6294" y1="481.9483" y2="471.9483"/><line style="stroke:#181818;stroke-width:0.5;" x1="1583.1919" x2="1739.6294" y1="481.9483" y2="481.9483"/><line style="stroke:#181818;stroke-width:0.5;" x1="1739.6294" x2="1739.6294" y1="481.9483" y2="534.9248"/><text fill="#000000" font-family="sans-serif" font-size="14" lengthAdjust="spacing" textLength="114.8643" x="1598.1919" y="505.4834">Safaricom Daraja</text><text fill="#000000" font-family="sans-serif" font-size="14" lengthAdjust="spacing" textLength="126.4375" x="1598.1919" y="521.9717">(M-Pesa off-ramp)</text></g><!--entity Smile--><g class="entity" data-qualified-name="Ext.Smile" data-source-line="35" id="ent0022"><polygon fill="#F1F1F1" points="1784.6819,481.9483,1794.6819,471.9483,1880.135,471.9483,1880.135,524.9248,1870.135,534.9248,1784.6819,534.9248,1784.6819,481.9483" style="stroke:#181818;stroke-width:0.5;stroke-linejoin:miter;stroke-miterlimit:10;"/><line style="stroke:#181818;stroke-width:0.5;" x1="1870.135" x2="1880.135" y1="481.9483" y2="471.9483"/><line style="stroke:#181818;stroke-width:0.5;" x1="1784.6819" x2="1870.135" y1="481.9483" y2="481.9483"/><line style="stroke:#181818;stroke-width:0.5;" x1="1870.135" x2="1870.135" y1="481.9483" y2="534.9248"/><text fill="#000000" font-family="sans-serif" font-size="14" lengthAdjust="spacing" textLength="55.4531" x="1799.6819" y="505.4834">Smile ID</text><text fill="#000000" font-family="sans-serif" font-size="14" lengthAdjust="spacing" textLength="36.6543" x="1799.6819" y="521.9717">(KYC)</text></g><!--entity Bank--><g class="entity" data-qualified-name="Ext.Bank" data-source-line="36" id="ent0023"><polygon fill="#F1F1F1" points="1915.3019,481.9483,1925.3019,471.9483,2111.5167,471.9483,2111.5167,524.9248,2101.5167,534.9248,1915.3019,534.9248,1915.3019,481.9483" style="stroke:#181818;stroke-width:0.5;stroke-linejoin:miter;stroke-miterlimit:10;"/><line style="stroke:#181818;stroke-width:0.5;" x1="2101.5167" x2="2111.5167" y1="481.9483" y2="471.9483"/><line style="stroke:#181818;stroke-width:0.5;" x1="1915.3019" x2="2101.5167" y1="481.9483" y2="481.9483"/><line style="stroke:#181818;stroke-width:0.5;" x1="2101.5167" x2="2101.5167" y1="481.9483" y2="534.9248"/><text fill="#000000" font-family="sans-serif" font-size="14" lengthAdjust="spacing" textLength="156.2148" x="1930.3019" y="505.4834">cUSDC Banking Partner</text><text fill="#000000" font-family="sans-serif" font-size="14" lengthAdjust="spacing" textLength="97.6377" x="1930.3019" y="521.9717">(USD reserves)</text></g><!--entity RPC--><g class="entity" data-qualified-name="Ext.RPC" data-source-line="37" id="ent0024"><polygon fill="#F1F1F1" points="2146.5319,481.9483,2156.5319,471.9483,2304.2877,471.9483,2304.2877,524.9248,2294.2877,534.9248,2146.5319,534.9248,2146.5319,481.9483" style="stroke:#181818;stroke-width:0.5;stroke-linejoin:miter;stroke-miterlimit:10;"/><line style="stroke:#181818;stroke-width:0.5;" x1="2294.2877" x2="2304.2877" y1="481.9483" y2="471.9483"/><line style="stroke:#181818;stroke-width:0.5;" x1="2146.5319" x2="2294.2877" y1="481.9483" y2="481.9483"/><line style="stroke:#181818;stroke-width:0.5;" x1="2294.2877" x2="2294.2877" y1="481.9483" y2="534.9248"/><text fill="#000000" font-family="sans-serif" font-size="14" lengthAdjust="spacing" textLength="117.7559" x="2161.5319" y="505.4834">Alchemy + Infura</text><text fill="#000000" font-family="sans-serif" font-size="14" lengthAdjust="spacing" textLength="70.5332" x="2161.5319" y="521.9717">(Base RPC)</text></g><!--entity HSM--><g class="entity" data-qualified-name="HSM" data-source-line="23" id="ent0013"><polygon fill="#F1F1F1" points="1149.0019,481.9483,1159.0019,471.9483,1367.8231,471.9483,1367.8231,524.9248,1357.8231,534.9248,1149.0019,534.9248,1149.0019,481.9483" style="stroke:#181818;stroke-width:0.5;stroke-linejoin:miter;stroke-miterlimit:10;"/><line style="stroke:#181818;stroke-width:0.5;" x1="1357.8231" x2="1367.8231" y1="481.9483" y2="471.9483"/><line style="stroke:#181818;stroke-width:0.5;" x1="1149.0019" x2="1357.8231" y1="481.9483" y2="481.9483"/><line style="stroke:#181818;stroke-width:0.5;" x1="1357.8231" x2="1357.8231" y1="481.9483" y2="534.9248"/><text fill="#000000" font-family="sans-serif" font-size="14" lengthAdjust="spacing" textLength="29.8867" x="1164.0019" y="505.4834">HSM</text><text fill="#000000" font-family="sans-serif" font-size="14" lengthAdjust="spacing" textLength="178.8213" x="1164.0019" y="521.9717">(tamper-resistant signing)</text></g><!--link APP to Orch--><g class="link" data-entity-1="ent0002" data-entity-2="ent0007" data-link-type="association" data-source-line="41" id="lnk25"><path d="M402.9319,155.6583 C415.2319,177.1383 435.5619,205.6983 462.4119,219.4583 C477.4619,227.1783 601.8819,216.0983 614.4119,227.4583 C624.7144,236.8033 631.0969,249.1645 634.8648,262.4914 C636.7488,269.1548 637.9792,276.0597 638.7191,282.9496 C638.8115,283.8108 638.8964,284.6719 638.9739,285.5321 C638.9932,285.7472 639.0121,285.9622 639.0306,286.1772" fill="none" id="APP-Orch" style="stroke:#181818;stroke-width:1;"/><text fill="#000000" font-family="sans-serif" font-size="13" lengthAdjust="spacing" textLength="161.2368" x="463.4119" y="201.0266">HTTPS REST + WebSocket</text><text fill="#000000" font-family="sans-serif" font-size="13" lengthAdjust="spacing" textLength="55.2754" x="516.3926" y="216.3372">(TLS 1.3)</text></g><!--link ADM to Orch--><g class="link" data-entity-1="ent0004" data-entity-2="ent0007" data-link-type="association" data-source-line="42" id="lnk26"><path d="M633.4119,147.6383 C633.4119,174.3833 633.4119,224.6008 633.4119,268.7058 C633.4119,274.2189 633.4119,279.6365 633.4119,284.9008 C633.4119,285.2299 633.4119,285.5583 633.4119,285.8861" fill="none" id="ADM-Orch" style="stroke:#181818;stroke-width:1;"/><text fill="#000000" font-family="sans-serif" font-size="13" lengthAdjust="spacing" textLength="86.4106" x="634.4119" y="208.5266">HTTPS (RBAC)</text></g><!--link RP to Orch--><g class="link" data-entity-1="ent0005" data-entity-2="ent0007" data-link-type="association" data-source-line="43" id="lnk27"><path d="M812.7019,147.6383 C789.3719,174.3833 745.5744,224.6008 707.1094,268.7058 C687.8769,290.7583 669.9775,311.2827 656.6362,326.5808 C653.3009,330.4053 650.2505,333.9032 647.5353,337.0167 C646.1778,338.5734 644.904,340.034 643.7203,341.3913 C643.1285,342.07 642.5592,342.7228 642.0133,343.3489 C641.8768,343.5054 641.7417,343.6602 641.6082,343.8134" fill="none" id="RP-Orch" style="stroke:#181818;stroke-width:1;"/><text fill="#000000" font-family="sans-serif" font-size="13" lengthAdjust="spacing" textLength="160.4751" x="777.8419" y="208.5266">HTTPS (read-only export)</text></g><!--link Orch to PG--><g class="link" data-entity-1="ent0007" data-entity-2="ent0011" data-link-type="association" data-source-line="44" id="lnk28"><path d="M641.5386,363.941 C641.632,364.0415 641.7262,364.1427 641.8211,364.2446 C642.0108,364.4485 642.2033,364.6554 642.3986,364.8652 C642.7892,365.2849 643.1908,365.7165 643.6031,366.1595 C644.4277,367.0455 645.2949,367.9774 646.202,368.9522 C653.459,376.7505 663.27,387.2939 674.2156,399.057 C696.1069,422.5833 722.5369,450.9883 742.1519,472.0683" fill="none" id="Orch-PG" style="stroke:#181818;stroke-width:1;"/><text fill="#000000" font-family="sans-serif" font-size="13" lengthAdjust="spacing" textLength="81.688" x="694.7119" y="417.5166">SQL over TLS</text></g><!--link Orch to RD--><g class="link" data-entity-1="ent0007" data-entity-2="ent0012" data-link-type="association" data-source-line="45" id="lnk29"><path d="M641.5628,356.6655 C646.234,357.5247 652.7781,358.7627 660.8406,360.3753 C676.9656,363.6005 699.1644,368.3239 724.6019,374.512 C775.4769,386.8883 839.3069,405.1233 893.4119,428.9483 C919.9719,440.6483 947.6619,457.4383 969.6419,472.0183" fill="none" id="Orch-RD" style="stroke:#181818;stroke-width:1;"/><text fill="#000000" font-family="sans-serif" font-size="13" lengthAdjust="spacing" textLength="87.1089" x="874.2319" y="417.5166">RESP over TLS</text></g><!--link Orch to HSM--><g class="link" data-entity-1="ent0007" data-entity-2="ent0013" data-link-type="association" data-source-line="46" id="lnk30"><path d="M641.5879,355.3943 C642.5526,355.4181 643.5979,355.4442 644.7213,355.4728 C646.968,355.5301 649.527,355.5974 652.3779,355.6755 C663.7813,355.9879 679.8541,356.4727 699.2908,357.1778 C738.164,358.588 790.4925,360.8789 845.8306,364.432 C956.5069,371.5383 1079.2219,383.6933 1130.4119,403.9483 C1168.4819,419.0183 1204.7619,448.9283 1228.9119,471.8583" fill="none" id="Orch-HSM" style="stroke:#181818;stroke-width:1;"/><text fill="#000000" font-family="sans-serif" font-size="13" lengthAdjust="spacing" textLength="43.5068" x="1162.8019" y="417.5166">sign tx</text></g><!--link Orch to Mono--><g class="link" data-entity-1="ent0007" data-entity-2="ent0020" data-link-type="association" data-source-line="47" id="lnk31"><path d="M641.8087,355.3151 C646.6748,355.3844 653.5616,355.4919 662.2207,355.6509 C679.5387,355.9688 703.9452,356.4925 733.4504,357.328 C792.4609,358.9989 871.8662,361.917 955.7481,366.9308 C1123.5119,376.9583 1309.1819,395.3683 1385.4119,428.9483 C1408.1219,438.9583 1429.7819,456.3083 1446.1619,471.6383" fill="none" id="Orch-Mono" style="stroke:#181818;stroke-width:1;"/><text fill="#000000" font-family="sans-serif" font-size="13" lengthAdjust="spacing" textLength="171.3804" x="1354.1719" y="417.5166">REST + OAuth + webhooks</text></g><!--link Orch to Daraja--><g class="link" data-entity-1="ent0007" data-entity-2="ent0021" data-link-type="association" data-source-line="48" id="lnk32"><path d="M642.3759,355.376 C643.1068,355.3902 643.8805,355.4053 644.6964,355.4213 C651.223,355.5494 660.444,355.7349 671.9971,355.979 C695.1033,356.4672 727.5378,357.1899 766.4025,358.1566 C844.1319,360.0898 947.5819,362.9989 1053.5669,366.9595 C1265.5369,374.8808 1487.6469,387.0083 1534.4119,403.9483 C1573.7919,418.2183 1611.3319,448.4083 1636.2419,471.6283" fill="none" id="Orch-Daraja" style="stroke:#181818;stroke-width:1;"/><text fill="#000000" font-family="sans-serif" font-size="13" lengthAdjust="spacing" textLength="99.3345" x="1567.7819" y="417.5166">OAuth 2.0 REST</text></g><!--link Orch to Smile--><g class="link" data-entity-1="ent0007" data-entity-2="ent0022" data-link-type="association" data-source-line="49" id="lnk33"><path d="M642.4773,355.3558 C643.2179,355.3684 644.0022,355.3818 644.8295,355.396 C651.4476,355.5094 660.8171,355.6746 672.6047,355.8941 C696.1799,356.333 729.4276,356.9891 769.6828,357.8823 C850.1931,359.6689 958.7331,362.4045 1073.9819,366.2508 C1304.4794,373.9433 1561.8119,386.0783 1675.4119,403.9483 C1717.2719,410.5383 1731.4219,406.5883 1767.4119,428.9483 C1784.9219,439.8283 1800.3919,456.8383 1811.8519,471.7583" fill="none" id="Orch-Smile" style="stroke:#181818;stroke-width:1;"/><text fill="#000000" font-family="sans-serif" font-size="13" lengthAdjust="spacing" textLength="166.6006" x="1752.6119" y="417.5166">SDK key + signed callback</text></g><!--link Orch to Bank--><g class="link" data-entity-1="ent0007" data-entity-2="ent0023" data-link-type="association" data-source-line="50" id="lnk34"><path d="M642.5446,355.3435 C644.3849,355.3713 646.4937,355.4034 648.8618,355.4397 C658.3342,355.5848 671.9567,355.7977 689.1516,356.077 C723.5416,356.6358 772.2216,357.4608 830.572,358.5433 C947.2728,360.7083 1102.655,363.9033 1259.7606,368.0583 C1573.9719,376.3683 1895.0769,388.5183 1927.4119,403.9483 C1957.5219,418.3283 1981.4119,448.6683 1996.2919,471.8983" fill="none" id="Orch-Bank" style="stroke:#181818;stroke-width:1;"/><text fill="#000000" font-family="sans-serif" font-size="13" lengthAdjust="spacing" textLength="97.1509" x="1952.0719" y="417.5166">encrypted REST</text></g><!--link Orch to RPC--><g class="link" data-entity-1="ent0007" data-entity-2="ent0024" data-link-type="association" data-source-line="51" id="lnk35"><path d="M641.7165,355.1419 C643.3941,355.1293 645.3181,355.1152 647.4811,355.1 C656.1332,355.0391 668.6102,354.9598 684.4498,354.881 C716.129,354.7234 761.2587,354.568 816.1404,354.5664 C925.904,354.5633 1074.6762,355.1758 1232.8706,357.6183 C1549.2594,362.5033 1903.3369,374.7083 2058.4119,403.9483 C2091.2919,410.1483 2099.9919,413.0283 2129.4119,428.9483 C2151.1919,440.7383 2173.2919,457.2683 2190.7919,471.6683" fill="none" id="Orch-RPC" style="stroke:#181818;stroke-width:1;"/><text fill="#000000" font-family="sans-serif" font-size="13" lengthAdjust="spacing" textLength="175.5444" x="2114.8819" y="417.5166">JSON-RPC 2.0 (HTTPS+WSS)</text></g><!--link RPC to Base--><g class="link" data-entity-1="ent0024" data-entity-2="ent0014" data-link-type="association" data-source-line="52" id="lnk36"><path d="M2225.4119,535.0983 C2225.4119,561.9533 2225.4119,601.8183 2225.4119,635.3808 C2225.4119,635.643 2225.4119,635.9048 2225.4119,636.1662" fill="none" id="RPC-Base" style="stroke:#181818;stroke-width:1;"/><text fill="#000000" font-family="sans-serif" font-size="13" lengthAdjust="spacing" textLength="119.3423" x="2226.4119" y="608.7566">submit / subscribe</text></g><!--link SAFE to CUSDC--><g class="link" data-entity-1="ent0018" data-entity-2="ent0015" data-link-type="dependency" data-source-line="53" id="lnk37"><path d="M1995.5719,719.0083 C1972.1119,735.9283 1941.1619,763.0083 1927.4119,795.6683 C1910.9019,834.8883 1927.728,880.4553 1940.848,907.3253" fill="none" id="SAFE-to-CUSDC" style="stroke:#181818;stroke-width:1;stroke-dasharray:7,7;"/><polygon fill="#181818" points="1943.0419,911.8183,1942.6874,901.9758,1940.848,907.3253,1935.4986,905.4859,1943.0419,911.8183" style="stroke:#181818;stroke-width:1;stroke-linejoin:miter;stroke-miterlimit:10;"/><text fill="#000000" font-family="sans-serif" font-size="13" lengthAdjust="spacing" textLength="119.4692" x="1928.4119" y="820.4866">governs mint/burn</text></g><!--link SAFE to BRG--><g class="link" data-entity-1="ent0018" data-entity-2="ent0017" data-link-type="dependency" data-source-line="54" id="lnk38"><path d="M2043.4919,719.0883 C2063.4219,740.2283 2091.881,770.3911 2111.841,791.5511" fill="none" id="SAFE-to-BRG" style="stroke:#181818;stroke-width:1;stroke-dasharray:7,7;"/><polygon fill="#181818" points="2115.2719,795.1883,2112.006,785.8967,2111.841,791.5511,2106.1865,791.3861,2115.2719,795.1883" style="stroke:#181818;stroke-width:1;stroke-linejoin:miter;stroke-miterlimit:10;"/><text fill="#000000" font-family="sans-serif" font-size="13" lengthAdjust="spacing" textLength="106.4692" x="2086.8819" y="762.2366">governs upgrade</text></g><!--link BRG to CUSDC--><g class="link" data-entity-1="ent0017" data-entity-2="ent0015" data-link-type="dependency" data-source-line="55" id="lnk39"><path d="M2103.2819,835.5783 C2070.0619,856.7083 2021.1205,887.8344 1987.8605,908.9944" fill="none" id="BRG-to-CUSDC" style="stroke:#181818;stroke-width:1;stroke-dasharray:7,7;"/><polygon fill="#181818" points="1983.6419,911.6783,1993.3825,910.2222,1987.8605,908.9944,1989.0883,903.4724,1983.6419,911.6783" style="stroke:#181818;stroke-width:1;stroke-linejoin:miter;stroke-miterlimit:10;"/><text fill="#000000" font-family="sans-serif" font-size="13" lengthAdjust="spacing" textLength="53.4917" x="2055.1919" y="878.7266">converts</text></g><!--link BRG to CNGN--><g class="link" data-entity-1="ent0017" data-entity-2="ent0016" data-link-type="dependency" data-source-line="56" id="lnk40"><path d="M2133.4119,835.5783 C2133.4119,856.7083 2133.4119,885.5183 2133.4119,906.6783" fill="none" id="BRG-to-CNGN" style="stroke:#181818;stroke-width:1;stroke-dasharray:7,7;"/><polygon fill="#181818" points="2133.4119,911.6783,2137.4119,902.6783,2133.4119,906.6783,2129.4119,902.6783,2133.4119,911.6783" style="stroke:#181818;stroke-width:1;stroke-linejoin:miter;stroke-miterlimit:10;"/><text fill="#000000" font-family="sans-serif" font-size="13" lengthAdjust="spacing" textLength="53.4917" x="2134.4119" y="878.7266">converts</text></g><?plantuml-src PLNRRXit47tVhnZu9JACLImvGOey5D35ST9OycPNXLkWBzJkI6ArIwearx8GvDzxIEfYsG844JDdBZnpXdBIrKmZlJMIAQKnRsgzQrWv6aknDAAXphreLRcYcTxeMYztbubTIxKHtbVgPgCLq8NR8KtRrFqaKRfYkYXOLMpeFULSoeqC6Vb9bloFwWnKPRIiwBSh-EL3GRqF_ZGqUclPN5wGi7im_Ko8X75o8Kf75x7FJEoG96TlcWeddvYkkvy-KFOuYB63B4j-7HePL8rKeOzbMmkd3JrgixOEWLeXpsXbTCFKwrtx7Wgn44PIx-DLJFN8yrSzn7mZhQp6bJlvS33QLnrFpe2dWfasJjG1b8VEobgt5H12rbkneqwsSokjwARRw_lCJaZ5niQq1v3l8jxemPGhjiw46r31nZDb0zYx0lAiuzQjSBMP4Sekman-jDenVh_y5QAAfxBtAkRxtwF0XYfz4Hlumsn0zMHf3a7zLq4WQwNr6k11Mqc7twc6JvQXqqFK3Q9-uLi99-R2uaAPjcvfkFXn3-8n4hrOfEKA990V4zCLYP0FyekSP7TdyJbNqj8dH9O2rA2kyM6rR48J_xNSyfxCyKaONui98fneDcnImrQY65HgvL99jIy4p75QGrzhocuB-M0h-X4HhESAAVyinYFgtEQZj7yTKIDlEWTDxwQlCB2SGOP6LaiEWZ0mn7BvtHa6UcMwIVKY_KYJjdOIxKUY1rzkNqZjzjcnKQAc3B5UN044wmjTJRJIOCGtfbMA_Tx4nhpz28eBWiMdCPw0VmK29cd6Lf2VsYaeUazXZSIsV1i33cb5IB0T4P6reL1uNPQ7DW67cKpKdZrGhjR7i46DYJSxQEIRMhJ6znD6acVxAZXu7jvHYez_iPfMxHK9XQYr3Ou4RmOESO4-qzVPB2ielorcI0nP5xfSiqFksJrUg-xDPO9jVuEFZq6IlytKCIogLAjwH_oymNDmcGG_SDaTK5xw-WcxYVn7Jpw61praRrtG9NnUgkIUZrO_g1ZYstu8Utz5sxYLzWYBem4m8lhTwn1ozCTPeQdnTrgpfzONuefAKTTpKQwFI3y905cLPhTnG9pb0VDm_b4yJ5D_z7KwWOwhnwBmD8rY3kkBsNOUjnK7MnevvyHBcBhTt-Fs0BFqFE0nmWFitizRequGxCKBGBl1NrV5YRU-J51g1O2p9uSN-yd-Fm00?></g></svg>